<?xml version="1.0" standalone="no"?>
<!DOCTYPE svg PUBLIC "-//W3C//DTD SVG 20010904//EN"
 "http://www.w3.org/TR/2001/REC-SVG-20010904/DTD/svg10.dtd">
<svg version="1.0" xmlns="http://www.w3.org/2000/svg"
 width="800.000000pt" height="200.000000pt" viewBox="0 0 800.000000 200.000000"
 preserveAspectRatio="xMidYMid meet">

<g transform="translate(0.000000,200.000000) scale(0.100000,-0.100000)"
fill="#000000" stroke="none">
<path d="M394 925 c3 -9 -1 -15 -11 -15 -12 0 -13 -3 -4 -13 8 -11 5 -16 -14
-25 -20 -9 -46 -8 -120 5 l-94 16 -33 -22 -34 -23 33 -33 c28 -28 32 -38 27
-64 -5 -23 -1 -40 17 -66 13 -19 31 -35 39 -35 13 1 12 2 -1 10 -19 11 -45 68
-35 78 4 3 10 2 14 -4 4 -6 24 -14 44 -17 34 -5 37 -4 40 21 2 17 10 28 23 31
11 2 41 21 66 42 32 27 56 39 78 39 38 0 40 12 6 34 -19 12 -24 23 -20 37 5
14 2 19 -10 19 -11 0 -15 -5 -11 -15z m-170 -144 c30 -12 26 -52 -5 -44 -24 7
-42 29 -34 43 8 12 8 12 39 1z"/>
<path d="M1050 925 c11 -13 10 -18 -6 -30 -23 -17 -17 -16 -129 -16 -71 1 -97
-3 -125 -19 -19 -10 -30 -19 -24 -20 7 0 14 -8 18 -17 3 -10 9 -23 12 -30 3
-6 -4 -20 -15 -30 -19 -17 -19 -22 -7 -63 7 -24 18 -46 24 -48 7 -2 6 7 -3 25
-22 42 -18 59 19 82 40 25 46 26 46 6 0 -8 9 -24 21 -36 19 -19 19 -22 5 -38
-18 -20 -21 -41 -6 -41 5 0 7 6 4 13 -3 8 2 20 11 27 14 11 20 11 37 1 11 -7
23 -10 26 -7 3 3 0 6 -7 6 -8 0 -11 6 -7 16 4 12 2 15 -9 10 -19 -7 -19 4 1
32 18 25 38 19 31 -9 -3 -11 -1 -16 5 -13 5 4 8 17 5 31 -3 16 1 27 10 30 9 3
33 26 55 50 30 31 48 43 69 43 41 0 36 13 -15 38 -51 26 -63 28 -46 7z m-132
-143 c10 -7 10 -15 2 -38 -11 -28 -12 -28 -26 -10 -28 39 -12 70 24 48z"/>
<path d="M1771 924 c22 -27 -18 -42 -131 -49 -58 -3 -118 -11 -133 -17 -26
-10 -28 -15 -23 -44 5 -26 2 -35 -14 -47 -12 -8 -28 -36 -36 -62 -17 -59 -17
-65 0 -65 9 0 12 8 8 25 -6 32 17 67 62 93 38 22 49 17 44 -21 -1 -13 7 -36
20 -51 12 -16 22 -33 22 -37 0 -5 10 -9 23 -9 21 1 21 1 -5 21 -32 24 -35 36
-10 42 12 3 11 5 -6 6 -20 1 -23 6 -20 34 3 27 7 33 32 35 38 5 48 -8 31 -41
-7 -15 -10 -27 -5 -27 6 0 16 16 24 35 16 39 44 46 70 19 9 -8 16 -11 16 -5 0
5 -4 13 -10 16 -17 11 -11 25 28 60 27 26 46 35 71 35 l35 0 -30 28 c-32 31
-85 53 -63 26z"/>
<path d="M2460 931 c0 -4 5 -12 11 -18 23 -23 -44 -43 -139 -43 -66 0 -101 -5
-132 -19 -24 -10 -37 -22 -31 -25 18 -12 12 -46 -12 -69 -23 -21 -47 -58 -47
-73 0 -4 9 5 20 19 24 30 88 72 97 63 4 -3 1 -17 -5 -31 -7 -14 -12 -28 -12
-30 0 -10 63 -75 72 -75 6 0 -4 13 -21 29 -35 33 -37 41 -16 81 14 27 21 30
61 30 45 0 46 0 42 -29 -2 -17 -1 -28 4 -25 4 3 8 13 8 23 0 29 24 43 53 32
14 -5 27 -16 30 -23 4 -9 6 -8 6 3 1 9 -6 20 -14 23 -19 7 -10 26 31 69 19 21
33 28 51 24 35 -7 36 6 3 38 -29 28 -60 41 -60 26z"/>
<path d="M3121 894 c11 -14 10 -19 -10 -35 -20 -16 -40 -19 -135 -19 -122 0
-163 -14 -151 -50 3 -11 -1 -24 -11 -32 -33 -26 -103 -103 -98 -107 3 -3 22
14 43 37 49 53 62 54 50 5 -13 -56 -9 -85 4 -36 9 31 23 50 53 71 38 28 44 29
112 23 82 -8 100 -18 83 -50 -7 -12 -16 -21 -21 -21 -6 0 -10 -6 -10 -12 1
-18 50 40 50 58 0 13 4 13 30 -1 42 -22 50 -18 13 6 -40 25 -40 32 -7 76 19
25 33 33 57 33 l32 1 -37 34 c-39 36 -72 49 -47 19z"/>
<path d="M3789 886 c9 -11 6 -19 -16 -36 -26 -21 -36 -22 -130 -17 -119 6
-147 -3 -148 -48 0 -24 -5 -31 -23 -33 -16 -3 -28 -15 -38 -37 -20 -48 -17
-56 6 -17 29 48 42 39 19 -13 -11 -25 -18 -51 -16 -58 2 -7 7 3 11 21 6 23 23
44 61 73 51 38 54 39 97 30 25 -6 61 -10 79 -9 19 0 57 -11 87 -26 59 -30 69
-28 17 4 -43 26 -44 46 -6 87 21 23 35 30 50 26 29 -7 26 8 -7 40 -30 29 -65
39 -43 13z"/>
<path d="M4465 881 c4 -14 -1 -24 -19 -36 -20 -14 -42 -15 -135 -9 -121 7
-142 1 -134 -40 4 -20 0 -25 -18 -28 -18 -2 -25 -10 -27 -33 -2 -16 -15 -45
-28 -62 -14 -18 -20 -33 -14 -33 6 0 20 16 31 35 12 20 41 47 65 61 43 25 43
25 141 12 77 -10 103 -17 121 -35 13 -13 26 -23 31 -23 4 0 18 -11 31 -25 13
-14 28 -25 33 -25 5 0 -17 23 -47 51 -36 33 -56 59 -56 73 0 31 40 66 75 66
l28 0 -24 26 c-13 14 -32 30 -42 36 -16 8 -18 7 -12 -11z"/>
<path d="M5901 864 c11 -14 10 -18 -6 -31 -22 -16 -110 -11 -145 7 -28 15
-106 12 -119 -4 -9 -10 -8 -16 4 -26 20 -17 19 -27 -5 -35 -22 -7 -27 -25 -8
-25 7 0 30 -17 53 -37 27 -26 31 -28 12 -7 -15 16 -27 35 -27 42 0 20 47 25
72 8 12 -9 31 -16 41 -16 11 0 24 -13 32 -32 l14 -33 1 28 c0 34 23 36 77 5
l38 -21 -34 32 -34 32 29 30 c19 19 38 29 58 29 l31 1 -37 34 c-39 36 -72 49
-47 19z"/>
<path d="M5130 855 c11 -13 10 -18 -6 -30 -25 -19 -80 -19 -157 1 -73 18 -124
7 -112 -24 4 -9 9 -22 12 -29 3 -7 -6 -15 -21 -19 -14 -3 -26 -12 -26 -20 0
-15 26 -19 34 -5 11 17 83 21 120 6 19 -8 48 -15 63 -15 22 0 34 -9 53 -40 25
-40 41 -48 20 -10 -15 28 -6 36 26 22 35 -16 21 4 -17 23 l-29 16 27 34 c22
27 35 35 61 35 17 0 32 2 32 5 0 11 -66 64 -79 65 -11 0 -11 -3 -1 -15z"/>
<path d="M7884 853 c4 -13 0 -26 -12 -36 -16 -15 -29 -15 -105 -6 -82 10 -89
9 -122 -11 l-35 -21 31 -26 c26 -22 30 -31 25 -59 -5 -25 -1 -38 20 -63 14
-17 30 -31 34 -31 5 0 -2 11 -15 25 -33 32 -32 76 1 46 16 -15 86 -22 81 -8
-8 21 12 57 31 57 10 0 37 20 60 44 30 32 47 43 62 39 29 -8 25 12 -7 35 -51
35 -56 36 -49 15z m-116 -157 c-3 -21 -32 -25 -52 -6 -17 17 1 38 29 32 20 -3
25 -10 23 -26z"/>
<path d="M6560 845 c11 -13 10 -18 -6 -30 -24 -18 -18 -18 -110 5 -98 24 -96
25 -129 -2 l-27 -21 23 -18 c21 -16 22 -18 6 -24 -23 -9 -22 -17 6 -34 20 -13
21 -13 9 2 -9 10 -10 17 -2 22 15 9 32 -5 26 -21 -8 -20 4 -44 20 -44 12 0 12
4 2 20 -16 25 -1 42 30 34 26 -7 28 -26 7 -48 -14 -13 -13 -16 7 -27 20 -11
21 -10 11 3 -10 11 -9 19 3 36 23 33 66 29 98 -9 31 -36 35 -29 6 11 l-20 29
32 36 c23 27 37 36 55 32 13 -2 23 -1 23 3 0 10 -43 46 -64 54 -16 5 -17 4 -6
-9z"/>
<path d="M7227 844 c13 -35 -53 -44 -146 -20 -56 16 -87 10 -111 -19 -14 -17
-14 -18 30 -44 11 -7 12 -12 2 -24 -10 -11 -10 -17 -1 -22 6 -4 16 -1 21 6 8
11 9 11 5 -1 -6 -19 16 -47 61 -78 36 -26 44 -20 10 8 l-23 18 24 26 c31 33
37 32 56 -1 14 -25 15 -25 9 -4 -9 32 67 111 108 111 35 0 35 5 1 35 -32 28
-55 33 -46 9z m-131 -131 c-3 -8 -6 -17 -6 -19 0 -9 -29 -3 -35 6 -12 20 3 39
25 33 13 -4 19 -11 16 -20z"/>
<path d="M1710 725 c-7 -9 -10 -18 -7 -21 3 -3 10 4 17 15 13 25 8 27 -10 6z"/>
<path d="M2295 700 c-13 -6 -15 -9 -5 -9 8 0 22 4 30 9 18 12 2 12 -25 0z"/>
<path d="M4811 693 c0 -12 -4 -30 -7 -40 -5 -14 -4 -15 5 -7 7 6 11 24 8 40
-3 21 -4 23 -6 7z"/>
<path d="M4851 705 c1 -19 18 -51 18 -35 0 8 -4 22 -9 30 -5 8 -9 11 -9 5z"/>
<path d="M5631 694 c0 -11 3 -14 6 -6 3 7 2 16 -1 19 -3 4 -6 -2 -5 -13z"/>
<path d="M3160 696 c0 -2 8 -10 18 -17 15 -13 16 -12 3 4 -13 16 -21 21 -21
13z"/>
<path d="M5957 669 c7 -7 15 -10 18 -7 3 3 -2 9 -12 12 -14 6 -15 5 -6 -5z"/>
<path d="M235 660 c3 -5 11 -10 16 -10 6 0 7 5 4 10 -3 6 -11 10 -16 10 -6 0
-7 -4 -4 -10z"/>
<path d="M5180 662 c0 -12 19 -26 26 -19 2 2 -2 10 -11 17 -9 8 -15 8 -15 2z"/>
<path d="M6585 630 c10 -11 20 -20 23 -20 3 0 -3 9 -13 20 -10 11 -20 20 -23
20 -3 0 3 -9 13 -20z"/>
</g>
</svg>
