<?xml version="1.0" standalone="no"?>
<!DOCTYPE svg PUBLIC "-//W3C//DTD SVG 20010904//EN"
 "http://www.w3.org/TR/2001/REC-SVG-20010904/DTD/svg10.dtd">
<svg version="1.0" xmlns="http://www.w3.org/2000/svg"
 width="942.000000pt" height="200.000000pt" viewBox="0 0 942.000000 200.000000"
 preserveAspectRatio="xMidYMid meet">

<g transform="translate(0.000000,200.000000) scale(0.100000,-0.100000)"
fill="#000000" stroke="none">
<path d="M522 1243 c-10 -4 -10 -8 0 -21 11 -13 10 -15 -9 -10 -23 6 -32 -6
-13 -17 17 -11 11 -22 -18 -34 -24 -10 -48 -8 -130 8 -107 22 -126 20 -169
-18 -23 -19 -30 -33 -15 -29 10 4 60 -45 63 -62 2 -8 -1 -25 -5 -38 -9 -27 40
-111 66 -112 12 0 9 7 -13 31 -16 17 -29 40 -29 50 0 20 16 26 22 8 2 -6 25
-13 51 -14 26 -2 45 0 42 5 -11 17 14 60 36 60 11 0 45 20 73 45 42 35 61 45
90 45 44 0 45 9 6 38 -24 18 -29 28 -24 47 6 25 1 28 -24 18z m-179 -193 c16
-15 2 -45 -18 -42 -28 5 -55 31 -48 48 5 14 48 10 66 -6z"/>
<path d="M3596 1226 c11 -44 -26 -56 -172 -60 -152 -3 -188 -15 -179 -57 6
-28 -14 -59 -39 -59 -7 0 -28 -21 -47 -47 -41 -58 -44 -63 -30 -63 5 0 24 20
40 44 31 44 80 72 66 38 -4 -9 -8 -42 -10 -72 -4 -50 -3 -51 4 -13 8 47 25 69
80 108 34 23 43 25 79 17 22 -5 52 -7 67 -4 33 6 75 -16 75 -38 0 -9 -9 -25
-20 -35 -11 -10 -18 -20 -15 -23 8 -8 44 42 45 61 0 21 12 22 50 2 17 -9 30
-11 30 -5 0 5 -4 10 -9 10 -4 0 -20 9 -35 21 l-26 20 30 44 c31 45 56 60 84
49 9 -3 16 -1 16 5 0 14 -51 65 -73 74 -14 5 -16 2 -11 -17z"/>
<path d="M1284 1228 c18 -14 17 -15 -9 -36 -25 -20 -40 -22 -141 -22 -86 0
-122 -4 -149 -17 -19 -9 -35 -21 -35 -25 0 -5 4 -7 8 -4 5 3 14 -11 21 -30 12
-33 11 -38 -9 -59 -21 -22 -21 -26 -8 -71 9 -33 20 -50 32 -52 18 -4 17 -2 -2
23 -33 42 -28 68 18 99 l41 27 14 -34 c8 -19 22 -37 31 -41 15 -6 14 -9 -6
-31 -18 -20 -21 -28 -12 -37 9 -9 12 -7 12 9 0 35 26 48 55 29 30 -20 46 -21
19 -2 -10 8 -17 16 -14 18 3 2 17 12 33 21 23 15 26 21 17 38 -11 20 -6 39 11
39 6 0 31 23 57 50 37 40 53 50 79 50 18 0 33 4 33 8 0 13 -56 51 -86 58 -27
6 -28 5 -10 -8z m-136 -172 c7 -7 -31 -65 -39 -60 -15 9 -30 54 -23 66 5 8 52
3 62 -6z m40 -38 c3 -14 -45 -44 -55 -34 -3 2 3 16 13 31 18 27 37 29 42 3z"/>
<path d="M2110 1231 c0 -6 5 -11 10 -11 20 0 9 -20 -17 -34 -18 -8 -72 -15
-148 -18 -145 -5 -179 -20 -169 -73 5 -30 -13 -65 -35 -65 -7 0 -41 -103 -41
-123 0 -4 7 -7 16 -7 8 0 12 5 9 11 -4 6 -4 26 0 45 5 27 16 41 53 64 62 39
74 38 70 -2 -3 -39 46 -117 75 -118 24 0 21 13 -5 25 -13 6 -23 17 -23 25 0 8
-6 19 -12 23 -16 10 -17 59 -1 75 7 7 27 12 45 12 28 0 33 -3 33 -24 0 -14 -8
-32 -17 -42 -13 -13 -14 -16 -3 -12 8 2 23 21 33 41 20 42 46 48 77 17 22 -22
27 -11 8 21 -12 18 -8 25 35 66 41 38 53 44 78 39 36 -7 37 3 2 36 -31 29 -73
45 -73 29z"/>
<path d="M2924 1221 c16 -18 15 -20 -17 -40 -29 -18 -50 -21 -138 -21 -119 0
-205 -22 -193 -50 17 -41 15 -51 -13 -77 -27 -26 -53 -63 -53 -78 0 -3 15 9
33 28 34 33 93 65 103 54 3 -3 -1 -18 -9 -34 -15 -28 -14 -31 16 -71 19 -24
40 -41 52 -41 17 0 17 2 -5 14 -14 7 -32 25 -40 40 -13 24 -12 30 5 63 19 35
23 37 70 37 50 0 50 0 50 -32 0 -36 12 -31 17 7 2 20 10 26 34 28 19 2 38 -3
48 -13 9 -9 16 -12 16 -7 0 5 -7 15 -15 22 -21 17 -20 21 21 68 31 37 41 42
77 42 l41 0 -39 40 c-21 22 -48 40 -59 40 -18 0 -18 -1 -2 -19z"/>
<path d="M4370 1232 c0 -4 5 -13 11 -19 7 -7 3 -17 -17 -32 -24 -19 -39 -21
-164 -21 -152 0 -167 -6 -161 -61 2 -25 -2 -30 -27 -35 -22 -4 -34 -17 -50
-50 -27 -56 -28 -72 -1 -21 11 20 26 37 34 37 15 0 14 -2 -32 -117 -3 -7 -3
-13 1 -13 3 0 15 21 26 48 29 63 111 126 155 117 17 -3 64 -10 105 -14 51 -6
91 -17 125 -35 l50 -27 -42 36 c-24 20 -43 41 -43 47 0 6 14 28 31 49 25 32
37 39 67 39 l36 0 -39 40 c-36 37 -65 51 -65 32z"/>
<path d="M6720 1230 c0 -5 5 -12 10 -15 18 -11 10 -30 -19 -48 -27 -16 -35
-16 -101 -2 -39 8 -80 20 -90 25 -24 13 -96 13 -121 0 -23 -13 -24 -26 -4 -47
20 -20 14 -37 -14 -41 -15 -3 -21 -8 -17 -19 3 -8 6 -16 6 -19 0 -2 6 -1 13 2
7 2 30 -16 51 -41 21 -26 41 -44 44 -40 3 3 -9 21 -27 39 -36 37 -34 51 6 67
18 7 30 5 46 -6 12 -9 39 -20 59 -25 30 -9 39 -17 52 -53 l15 -42 -2 40 c-2
35 1 40 20 43 13 2 35 -5 50 -16 61 -43 78 -44 34 -3 -47 45 -47 43 6 100 18
18 30 22 52 18 43 -9 43 1 3 42 -38 38 -72 58 -72 41z"/>
<path d="M5170 1215 c15 -18 8 -29 -32 -47 -27 -12 -53 -13 -147 -6 -141 12
-165 5 -155 -46 6 -32 4 -35 -22 -38 -25 -3 -30 -8 -35 -41 -3 -21 -16 -52
-28 -68 -13 -17 -21 -33 -18 -35 3 -3 13 7 24 21 38 54 59 74 108 99 47 24 52
25 90 11 22 -8 66 -14 97 -15 49 0 62 -4 91 -30 19 -16 39 -30 44 -30 5 0 22
-13 38 -30 16 -16 33 -30 38 -30 6 0 -20 27 -57 61 -38 35 -66 69 -66 80 0 11
12 36 27 55 25 30 32 33 60 28 42 -8 42 4 -1 44 -35 33 -81 47 -56 17z"/>
<path d="M9240 1210 c0 -5 5 -10 10 -10 20 0 9 -28 -17 -45 -30 -20 -78 -21
-180 -5 -51 8 -69 8 -91 -4 -53 -28 -55 -39 -15 -85 31 -37 35 -46 25 -62 -7
-10 -12 -24 -12 -30 0 -17 60 -89 75 -89 7 0 -3 16 -21 36 -19 19 -34 40 -34
45 0 15 33 24 38 11 2 -7 19 -12 37 -12 19 0 37 -4 40 -10 10 -16 35 -12 29 5
-11 29 5 64 33 71 15 4 49 31 76 61 41 44 55 53 84 53 41 0 37 10 -19 51 -43
31 -58 36 -58 19z m-165 -180 c36 -14 32 -56 -5 -52 -32 3 -54 26 -47 46 7 19
16 20 52 6z"/>
<path d="M5940 1202 c0 -4 5 -13 12 -20 9 -9 7 -17 -8 -33 -17 -19 -26 -21
-84 -15 -36 4 -83 12 -105 18 -50 13 -88 13 -115 -2 -21 -11 -21 -12 -4 -37
16 -25 16 -27 -2 -40 -10 -7 -23 -13 -30 -13 -8 0 -16 -20 -20 -47 -3 -27 -11
-56 -16 -65 -5 -11 -5 -18 1 -18 12 0 21 25 21 60 0 46 19 45 41 -2 19 -40 21
-26 4 28 -6 18 0 23 39 36 41 13 48 13 67 0 12 -8 47 -18 78 -21 54 -6 57 -8
88 -56 30 -45 49 -50 21 -5 -28 44 23 36 78 -12 19 -17 34 -27 34 -24 0 12
-73 71 -102 83 -15 7 -28 15 -28 18 0 3 14 24 32 46 25 31 38 39 65 39 18 0
33 3 33 8 0 14 -71 82 -86 82 -8 0 -14 -4 -14 -8z"/>
<path d="M7560 1200 c0 -5 5 -12 10 -15 14 -9 -6 -34 -34 -45 -12 -4 -58 3
-110 16 -112 29 -136 29 -170 3 -31 -24 -34 -45 -6 -52 23 -6 27 -37 5 -37 -8
0 -15 -4 -15 -9 0 -12 85 -81 100 -81 7 0 23 -9 37 -20 31 -24 54 -27 31 -4
-15 16 -15 19 0 43 22 35 28 38 62 33 20 -3 43 -19 65 -45 41 -47 46 -42 10
11 -14 20 -25 41 -25 47 0 5 21 29 46 52 36 34 51 42 70 37 32 -8 30 2 -8 34
-35 31 -68 46 -68 32z m-253 -146 c9 -23 -11 -38 -26 -20 -13 16 -7 36 10 36
5 0 12 -7 16 -16z m68 -6 c26 -12 32 -32 16 -57 -15 -23 -61 2 -61 32 0 21 7
37 16 37 2 0 15 -5 29 -12z"/>
<path d="M8415 1191 c7 -24 -28 -51 -65 -51 -15 0 -64 9 -110 21 -77 20 -86
20 -116 6 -36 -18 -65 -57 -41 -57 20 0 61 -46 48 -55 -16 -9 -13 -35 3 -35 8
0 16 3 19 8 2 4 2 1 0 -6 -3 -13 75 -95 108 -113 28 -15 23 6 -6 25 -31 20
-31 33 0 69 33 37 47 34 67 -15 21 -49 32 -47 17 3 -11 35 -11 36 46 90 38 36
66 54 84 55 37 1 36 10 -3 44 -39 35 -60 39 -51 11z m-170 -165 c0 -10 -8 -24
-18 -30 -14 -9 -21 -7 -32 7 -19 27 -8 49 24 45 18 -2 26 -9 26 -22z"/>
<path d="M6380 1025 c0 -5 5 -17 10 -25 5 -8 10 -10 10 -5 0 6 -5 17 -10 25
-5 8 -10 11 -10 5z"/>
<path d="M2045 990 c-10 -11 -14 -20 -9 -20 5 0 15 9 22 20 7 11 11 20 9 20
-2 0 -12 -9 -22 -20z"/>
<path d="M3640 996 c0 -2 8 -10 18 -17 15 -13 16 -12 3 4 -13 16 -21 21 -21
13z"/>
<path d="M2876 973 c-6 -14 -5 -15 5 -6 7 7 10 15 7 18 -3 3 -9 -2 -12 -12z"/>
<path d="M2730 970 c-23 -7 -23 -8 -3 -9 12 -1 25 4 28 9 3 6 5 10 3 9 -2 -1
-14 -5 -28 -9z"/>
<path d="M4325 970 c-3 -5 -1 -10 4 -10 6 0 11 5 11 10 0 6 -2 10 -4 10 -3 0
-8 -4 -11 -10z"/>
<path d="M6804 966 c11 -9 24 -16 30 -16 12 0 7 5 -24 19 -24 11 -24 11 -6 -3z"/>
<path d="M5171 954 c0 -11 3 -14 6 -6 3 7 2 16 -1 19 -3 4 -6 -2 -5 -13z"/>
<path d="M8150 940 c-8 -5 -12 -11 -9 -14 2 -3 11 -1 19 4 8 5 12 11 9 14 -2
3 -11 1 -19 -4z"/>
<path d="M340 920 c0 -5 5 -10 11 -10 5 0 7 5 4 10 -3 6 -8 10 -11 10 -2 0 -4
-4 -4 -10z"/>
<path d="M7590 922 c0 -12 19 -26 26 -19 2 2 -2 10 -11 17 -9 8 -15 8 -15 2z"/>
<path d="M6635 910 c3 -5 11 -10 16 -10 6 0 7 5 4 10 -3 6 -11 10 -16 10 -6 0
-7 -4 -4 -10z"/>
<path d="M7350 910 c0 -5 5 -10 10 -10 6 0 10 5 10 10 0 6 -4 10 -10 10 -5 0
-10 -4 -10 -10z"/>
<path d="M8360 901 c0 -5 7 -12 16 -15 14 -5 15 -4 4 9 -14 17 -20 19 -20 6z"/>
<path d="M9095 890 c3 -5 8 -10 11 -10 2 0 4 5 4 10 0 6 -5 10 -11 10 -5 0 -7
-4 -4 -10z"/>
</g>
</svg>
