<?xml version="1.0" standalone="no"?>
<!DOCTYPE svg PUBLIC "-//W3C//DTD SVG 20010904//EN"
 "http://www.w3.org/TR/2001/REC-SVG-20010904/DTD/svg10.dtd">
<svg version="1.0" xmlns="http://www.w3.org/2000/svg"
 width="1000.000000pt" height="301.000000pt" viewBox="0 0 1000.000000 301.000000"
 preserveAspectRatio="xMidYMid meet">

<g transform="translate(0.000000,301.000000) scale(0.100000,-0.100000)"
fill="#000000" stroke="none">
<path d="M7235 2563 c-73 -20 -124 -100 -128 -201 -4 -80 -17 -102 -59 -102
-64 0 -149 -134 -256 -403 l-40 -98 51 -154 50 -154 -43 -98 c-38 -88 -70
-159 -227 -508 -33 -73 -55 -109 -84 -133 l-39 -34 33 -31 c17 -18 63 -65 100
-105 71 -75 96 -85 152 -63 18 7 18 9 -7 25 -28 18 -128 163 -128 186 0 7 20
49 44 94 24 45 79 160 121 256 106 239 116 260 126 260 5 0 9 -9 9 -19 0 -24
12 -32 30 -21 10 6 11 23 7 70 -6 49 -3 68 10 91 10 16 20 29 23 29 27 0 290
-261 290 -288 0 -37 -232 -261 -299 -289 l-33 -14 22 -24 c13 -14 49 -75 80
-136 32 -61 60 -108 63 -103 3 5 -3 56 -14 114 l-19 104 37 56 c20 30 73 91
119 136 97 96 113 125 148 266 l26 107 -91 185 -91 185 -2 143 c0 79 3 166 7
193 8 44 6 55 -17 95 -30 53 -34 95 -8 98 85 10 103 15 98 28 -4 9 2 14 18 14
40 0 74 56 77 129 2 46 -1 55 -28 82 -30 31 -84 44 -128 32z m-339 -784 c-8
-41 -19 -96 -23 -124 l-9 -50 -15 77 -16 78 36 49 c20 27 37 48 39 47 1 -2 -4
-36 -12 -77z m358 -226 l87 -162 -10 -56 c-6 -30 -8 -70 -4 -87 4 -21 3 -29
-5 -24 -6 3 -59 72 -118 152 l-106 145 16 67 c32 129 38 144 46 136 4 -5 47
-82 94 -171z"/>
<path d="M5320 2492 c-19 -9 -48 -37 -65 -60 -25 -37 -30 -54 -31 -105 -2 -97
-10 -121 -49 -140 -19 -9 -41 -30 -49 -46 -25 -48 -46 -201 -58 -433 l-11
-218 23 -49 23 -50 -14 -188 -14 -188 -38 -9 c-28 -7 -47 -6 -70 3 -76 31 -77
31 -77 -42 0 -50 -8 -86 -35 -157 -35 -93 -43 -130 -26 -130 14 0 43 44 85
127 32 64 42 76 87 99 28 14 53 24 55 22 4 -4 -31 -285 -42 -343 -3 -16 -16
-49 -29 -72 -13 -23 -20 -44 -17 -47 9 -10 316 -6 332 4 8 5 12 11 10 13 -19
18 -78 38 -136 47 -38 6 -70 13 -72 14 -3 4 42 322 54 377 5 25 12 28 107 48
56 12 106 26 111 31 9 9 -10 125 -45 264 -21 81 -20 108 0 57 14 -32 58 -78
67 -69 3 4 -10 59 -29 125 -33 112 -35 123 -27 208 33 373 34 397 16 460 -10
33 -26 76 -37 97 -25 49 -17 68 31 68 74 0 160 96 160 179 0 97 -97 150 -190
103z m-75 -1307 c10 -49 25 -100 33 -113 17 -27 2 -52 -32 -52 -21 1 -21 1 -1
17 19 15 19 15 -5 9 -14 -3 -35 -9 -47 -12 -20 -5 -23 -3 -23 20 0 48 43 248
50 234 4 -7 15 -53 25 -103z"/>
<path d="M9015 2446 c-67 -30 -115 -110 -115 -191 0 -35 -7 -55 -26 -81 -15
-19 -32 -34 -40 -34 -30 0 -112 -147 -212 -381 -95 -221 -168 -358 -227 -429
-34 -41 -43 -72 -27 -97 6 -9 14 -8 34 5 23 15 54 69 166 287 41 80 144 257
147 253 1 -2 -2 -70 -6 -153 -13 -238 -30 -318 -101 -475 -34 -74 -65 -140
-70 -147 -10 -13 -21 -18 -253 -125 -93 -43 -171 -82 -173 -87 -6 -17 138
-293 151 -288 7 2 11 8 10 13 -1 5 -11 58 -22 119 -11 60 -17 112 -13 116 4 4
86 43 182 87 l175 78 100 145 c55 80 107 155 115 168 15 22 16 22 88 -63 40
-47 93 -120 119 -163 46 -78 224 -438 237 -480 11 -34 45 -29 110 14 58 40
186 158 186 173 0 18 -22 21 -43 7 -22 -14 -130 -59 -175 -72 -56 -16 -104 74
-341 644 l-52 124 16 122 c9 67 19 135 24 151 7 27 9 24 29 -42 21 -70 24 -74
144 -187 118 -110 124 -119 152 -193 30 -78 68 -135 81 -122 4 4 1 35 -6 70
-12 54 -30 85 -132 228 -181 255 -233 369 -253 559 -5 49 -13 71 -31 89 -37
37 -25 49 46 44 53 -4 66 -1 100 21 47 32 91 114 91 171 0 99 -96 162 -185
122z"/>
<path d="M1407 2406 c-69 -25 -127 -101 -127 -165 0 -48 -34 -115 -66 -129
-15 -7 -45 -27 -65 -43 -56 -44 -185 -207 -213 -270 -26 -57 -56 -160 -56
-193 0 -45 -33 -136 -51 -141 -11 -4 -19 -13 -19 -22 0 -8 -9 -17 -20 -20 -24
-6 -105 -116 -90 -121 6 -2 46 19 90 48 92 61 85 46 160 315 28 98 43 129 89
180 33 37 142 128 146 122 6 -7 -20 -147 -47 -252 -70 -275 -71 -277 -60 -325
9 -37 6 -58 -14 -130 -33 -114 -77 -205 -116 -243 -58 -54 -329 -227 -357
-227 -59 0 -60 9 40 -261 13 -34 46 -51 94 -47 54 4 54 21 0 52 l-45 27 0 86
c0 84 1 86 33 115 17 16 82 63 143 103 62 41 129 94 150 119 32 36 120 190
169 293 5 13 12 23 15 23 8 0 102 -109 142 -165 70 -98 348 -576 348 -598 0
-29 12 -47 31 -47 55 0 139 72 215 185 52 76 25 72 -89 -11 -32 -24 -67 -44
-76 -44 -19 0 -99 104 -226 295 -88 132 -205 358 -225 435 -14 50 -7 161 14
250 7 30 19 81 26 113 8 32 17 60 20 62 4 3 13 -23 20 -58 15 -77 45 -130 120
-210 l59 -63 -1 -65 c-1 -64 14 -111 50 -151 23 -27 32 -12 32 51 0 60 -10 84
-154 352 -48 91 -86 196 -86 240 0 37 -39 159 -60 189 -12 17 -15 32 -9 47 7
18 13 21 47 16 105 -14 214 114 182 212 -21 64 -95 95 -163 71z"/>
<path d="M3467 2276 c-38 -14 -63 -30 -85 -56 -24 -29 -52 -89 -52 -114 0 -39
-33 -85 -98 -135 -33 -25 -116 -89 -184 -141 -67 -52 -131 -103 -140 -115 -10
-11 -50 -72 -89 -135 -92 -148 -116 -180 -137 -180 -23 0 -152 -69 -152 -81 0
-19 171 9 202 33 9 7 70 86 136 174 100 134 134 173 205 228 47 36 89 66 95
66 16 0 32 -58 32 -112 0 -56 -19 -128 -60 -233 -16 -39 -31 -92 -35 -118 -4
-26 -12 -47 -19 -47 -7 0 -7 -3 -1 -8 6 -4 17 -23 26 -42 l16 -35 -71 -132
c-81 -150 -105 -179 -155 -194 -145 -42 -260 -66 -302 -62 -26 3 -49 1 -52 -4
-3 -4 -10 -43 -16 -86 -6 -43 -14 -89 -17 -103 -5 -19 -2 -24 13 -24 18 0 40
19 126 108 32 33 58 46 180 87 78 26 147 51 154 54 8 4 164 193 239 289 4 6
155 -98 210 -144 69 -59 80 -87 65 -172 -42 -241 -54 -288 -77 -315 -32 -38
-31 -43 14 -51 76 -12 301 -1 285 15 -4 4 -42 17 -83 29 -78 23 -110 43 -110
68 0 8 16 93 36 188 l36 173 -126 123 c-137 134 -141 142 -113 218 35 93 78
365 70 430 -5 31 -4 33 10 20 8 -8 37 -58 65 -110 44 -83 59 -102 119 -148
159 -124 205 -165 215 -193 10 -30 93 -95 103 -80 2 5 -10 37 -28 72 -28 56
-48 77 -167 175 -74 60 -151 131 -171 157 -47 63 -199 366 -192 384 4 10 14
12 37 7 47 -11 75 -6 122 21 79 46 112 145 71 208 -29 45 -93 63 -150 43z"/>
<path d="M4160 1203 c0 -14 19 -38 25 -32 8 8 -5 39 -16 39 -5 0 -9 -3 -9 -7z"/>
<path d="M3305 740 c-3 -5 -1 -10 4 -10 6 0 11 5 11 10 0 6 -2 10 -4 10 -3 0
-8 -4 -11 -10z"/>
<path d="M1431 494 c0 -11 3 -14 6 -6 3 7 2 16 -1 19 -3 4 -6 -2 -5 -13z"/>
<path d="M3950 480 c0 -5 5 -10 10 -10 6 0 10 5 10 10 0 6 -4 10 -10 10 -5 0
-10 -4 -10 -10z"/>
</g>
</svg>
