<?xml version="1.0" standalone="no"?>
<!DOCTYPE svg PUBLIC "-//W3C//DTD SVG 20010904//EN"
 "http://www.w3.org/TR/2001/REC-SVG-20010904/DTD/svg10.dtd">
<svg version="1.0" xmlns="http://www.w3.org/2000/svg"
 width="300.000000pt" height="150.000000pt" viewBox="0 0 300.000000 150.000000"
 preserveAspectRatio="xMidYMid meet">
<metadata>
Created by potrace 1.10, written by Peter Selinger 2001-2011
</metadata>
<g transform="translate(0.000000,150.000000) scale(0.100000,-0.100000)"
fill="#000000" stroke="none">
<path d="M1607 1162 c-9 -10 -17 -34 -17 -53 0 -25 -7 -42 -24 -56 -25 -22
-29 -43 -42 -201 -4 -56 -2 -87 5 -96 8 -9 10 -40 5 -94 -6 -67 -10 -81 -25
-85 -11 -3 -22 -1 -25 4 -3 5 -12 9 -20 9 -10 0 -14 -12 -14 -37 -1 -21 -7
-49 -15 -63 -17 -29 -18 -40 -7 -40 5 0 17 18 27 41 18 38 40 59 65 59 6 0 9
-4 5 -10 -3 -5 -10 -37 -14 -72 -5 -35 -12 -72 -16 -83 -6 -19 -1 -20 60 -20
36 0 65 3 65 6 0 10 -28 19 -57 19 -25 0 -25 1 -19 53 15 117 15 117 57 123
22 4 42 11 45 15 7 11 -24 131 -36 143 -7 7 -10 6 -10 0 0 -5 -9 -10 -19 -11
-17 -1 -21 7 -27 54 -12 100 10 273 35 273 22 0 32 -70 25 -167 -9 -113 -9
-117 14 -160 16 -32 40 -47 29 -19 -25 65 -28 95 -18 184 9 79 8 100 -6 133
-8 22 -14 41 -12 42 2 1 17 9 34 17 35 18 55 63 39 88 -16 25 -66 27 -87 4z
m49 -11 c-4 -5 0 -11 6 -14 19 -7 -4 -41 -30 -45 -17 -3 -19 1 -15 20 3 13 13
29 21 36 19 14 25 16 18 3z m-52 -562 c-9 -14 -45 3 -40 20 3 9 8 34 12 56 l8
40 12 -54 c7 -30 11 -58 8 -62z"/>
<path d="M2136 1159 c-17 -13 -26 -30 -26 -49 0 -40 -9 -60 -29 -60 -18 0 -51
-45 -76 -105 -10 -22 -21 -48 -26 -57 -13 -25 -10 -56 10 -113 l17 -49 -63
-141 c-36 -77 -72 -146 -81 -153 -15 -11 -12 -17 30 -58 52 -53 83 -53 43 0
-14 18 -25 39 -25 46 0 6 13 40 29 74 16 33 41 88 56 121 20 46 28 56 35 45 7
-11 10 -5 10 22 0 20 5 40 10 43 10 6 120 -98 120 -114 0 -5 -29 -36 -65 -69
-36 -34 -60 -64 -55 -67 6 -4 17 -22 25 -41 17 -40 40 -48 25 -8 -16 42 -12
52 44 113 40 43 56 70 65 107 12 48 11 53 -24 126 -32 66 -36 85 -36 153 0 42
-5 87 -11 101 -13 28 -9 34 21 37 11 1 21 5 21 9 0 4 6 8 14 8 32 0 35 63 4
84 -29 20 -30 20 -62 -5z m44 -29 c0 -11 -5 -20 -11 -20 -5 0 -7 -4 -4 -10 7
-12 -5 -13 -23 -2 -17 11 -4 45 15 38 8 -3 11 -1 8 4 -3 6 -1 10 4 10 6 0 11
-9 11 -20z m-56 -184 c-11 -46 -12 -66 -2 -60 14 9 9 -7 -11 -33 -11 -13 -23
-44 -27 -68 -5 -38 -9 -43 -30 -41 -34 4 -38 11 -24 48 17 47 23 98 12 98 -14
0 -22 -25 -22 -66 0 -19 -4 -34 -10 -34 -16 0 -12 76 5 90 16 13 21 45 6 36
-5 -4 -4 5 2 19 7 14 15 25 20 25 4 0 7 6 7 13 0 18 34 49 43 40 4 -3 7 2 7
13 1 12 6 7 16 -15 9 -23 12 -46 8 -65z m71 -268 c0 -21 -2 -38 -5 -38 -3 0
-24 27 -47 58 -41 56 -42 59 -31 101 l11 42 36 -63 c22 -40 36 -77 36 -100z"/>
<path d="M429 1081 c-16 -16 -29 -39 -29 -50 0 -13 -26 -46 -63 -84 -62 -60
-72 -78 -97 -174 -6 -25 -24 -55 -42 -72 -40 -37 -31 -51 11 -20 24 18 36 40
56 104 19 64 32 89 61 114 19 18 38 31 41 28 3 -3 -6 -52 -20 -109 -14 -57
-25 -119 -25 -138 0 -19 -9 -56 -21 -82 -17 -40 -33 -56 -96 -97 -41 -27 -80
-51 -85 -53 -6 -2 -4 -20 7 -48 21 -58 31 -70 54 -70 25 0 24 17 -1 25 -15 5
-20 15 -20 44 0 36 4 41 69 86 59 39 75 57 103 111 18 35 35 64 38 64 16 0
180 -258 195 -307 6 -21 8 -22 33 -9 29 15 77 74 68 83 -3 3 -17 -4 -32 -16
-15 -11 -32 -21 -38 -21 -15 0 -129 171 -162 243 -26 59 -27 72 -8 180 7 40
24 51 24 14 0 -25 45 -97 60 -97 15 0 13 7 -15 53 -13 23 -31 71 -39 106 -8
35 -19 68 -25 74 -15 15 -2 35 20 30 49 -13 94 83 50 107 -30 15 -40 13 -72
-19z m59 -28 c-2 -20 -9 -27 -30 -30 -16 -2 -28 1 -28 7 0 24 22 50 41 50 16
0 20 -5 17 -27z m-70 -118 c7 -14 12 -34 12 -44 0 -21 -25 -73 -31 -67 -2 3
-4 -8 -5 -22 -1 -105 -4 -120 -24 -125 -17 -4 -20 0 -20 26 0 18 10 71 22 120
18 69 20 91 11 106 -7 10 -9 22 -6 25 13 13 30 5 41 -19z"/>
<path d="M1103 1068 c-11 -13 -23 -35 -26 -49 -4 -16 -37 -49 -90 -92 -57 -45
-95 -84 -118 -122 -26 -43 -44 -61 -78 -76 -52 -23 -50 -33 5 -21 33 7 48 20
94 79 71 91 118 132 131 112 14 -22 11 -51 -15 -125 -16 -46 -21 -74 -15 -85
9 -17 -37 -115 -64 -137 -17 -14 -123 -44 -143 -40 -14 2 -20 -7 -26 -41 -4
-25 -6 -46 -4 -48 2 -2 18 11 36 30 21 23 51 40 92 53 52 15 65 25 105 76 25
32 49 58 53 58 10 0 83 -54 99 -74 12 -14 12 -28 1 -89 -7 -40 -19 -80 -28
-89 -14 -17 -11 -18 59 -17 l74 1 -40 12 c-47 15 -50 26 -32 111 l13 60 -53
55 -53 55 16 50 c8 28 16 76 17 107 1 32 5 58 8 58 3 0 14 -18 24 -40 10 -22
39 -57 64 -77 25 -20 60 -52 78 -72 20 -23 32 -30 33 -21 0 24 -24 53 -84 99
-42 33 -64 60 -95 121 -23 43 -41 82 -41 88 0 5 11 7 26 4 48 -9 95 63 62 96
-19 19 -63 14 -85 -10z m63 -35 c-4 -12 -17 -20 -36 -21 -32 -3 -37 5 -17 30
26 34 64 27 53 -9z m-75 -200 c-16 -118 -30 -160 -52 -166 -30 -8 -34 34 -10
105 26 75 27 115 4 142 -10 12 -14 18 -9 14 5 -5 16 2 24 13 l14 21 21 -20
c19 -20 20 -25 8 -109z"/>
<path d="M2665 1045 c-15 -14 -25 -36 -25 -52 0 -18 -10 -38 -28 -54 -15 -15
-49 -75 -76 -135 -27 -60 -64 -133 -83 -163 -22 -34 -31 -57 -25 -63 9 -9 45
48 106 170 15 30 29 52 31 50 2 -2 0 -46 -5 -98 -7 -66 -18 -114 -37 -157 -28
-62 -28 -62 -115 -103 l-88 -41 31 -60 c33 -67 46 -72 30 -12 -6 21 -11 43
-11 49 0 6 33 25 74 43 69 30 78 38 117 97 23 35 45 64 48 64 17 0 89 -112
131 -203 25 -53 48 -96 52 -97 11 0 108 80 108 90 0 6 -18 1 -40 -10 -54 -28
-63 -26 -88 19 -43 76 -122 275 -117 295 2 12 6 36 9 54 6 45 12 49 20 15 4
-15 29 -50 56 -78 27 -27 56 -67 65 -87 8 -21 20 -38 25 -38 6 0 10 2 10 5 0
15 -31 69 -72 127 -57 79 -83 136 -93 201 -3 26 -10 47 -16 47 -5 0 -9 5 -9
11 0 7 11 9 27 6 20 -4 34 2 55 23 33 33 36 62 8 90 -26 26 -46 25 -75 -5z
m65 -33 c0 -34 -16 -52 -48 -52 -22 0 -24 3 -18 32 7 34 20 48 49 48 12 0 17
-8 17 -28z m-73 -158 c9 -47 9 -63 -1 -79 -23 -35 -29 -126 -11 -168 l16 -38
-25 16 c-16 11 -33 14 -47 10 -19 -6 -21 -4 -15 11 14 36 19 184 7 198 -9 11
-8 23 4 52 34 82 54 82 72 -2z"/>
</g>
</svg>
