<?xml version="1.0" standalone="no"?>
<!DOCTYPE svg PUBLIC "-//W3C//DTD SVG 20010904//EN"
 "http://www.w3.org/TR/2001/REC-SVG-20010904/DTD/svg10.dtd">
<svg version="1.0" xmlns="http://www.w3.org/2000/svg"
 width="1000.000000pt" height="301.000000pt" viewBox="0 0 1000.000000 301.000000"
 preserveAspectRatio="xMidYMid meet">

<g transform="translate(0.000000,301.000000) scale(0.100000,-0.100000)"
fill="#000000" stroke="none">
<path d="M5334 2210 c-35 -14 -64 -59 -64 -101 0 -58 -15 -89 -44 -89 -16 0
-33 -11 -49 -32 -29 -38 -97 -172 -97 -190 -1 -7 -9 -30 -19 -52 -20 -41 -19
-49 23 -166 9 -25 16 -52 16 -61 0 -8 -32 -87 -70 -175 -108 -244 -122 -272
-147 -296 l-24 -22 63 -63 c48 -48 69 -63 91 -63 l29 0 -28 33 c-16 18 -38 49
-49 70 -20 37 -20 38 -1 70 16 28 88 182 141 305 18 39 35 55 35 32 0 -5 5
-10 11 -10 6 0 10 16 8 38 -2 45 8 72 28 72 8 0 53 -39 99 -86 61 -62 82 -90
76 -100 -15 -27 -135 -144 -169 -165 -30 -19 -32 -23 -20 -38 8 -9 27 -40 42
-68 16 -29 32 -53 38 -53 5 0 7 6 4 14 -3 7 -8 34 -12 59 -7 44 -5 49 39 106
26 34 55 65 65 71 29 15 53 60 76 140 l21 75 -59 121 -59 121 1 122 c0 86 -5
132 -15 158 -11 25 -12 39 -5 46 6 6 11 7 11 3 0 -5 7 -3 15 4 8 7 22 10 30 6
9 -3 15 0 15 10 0 10 6 14 15 11 9 -4 20 5 30 25 23 47 19 83 -11 107 -28 22
-46 25 -80 11z m-208 -512 c-5 -38 -13 -68 -17 -68 -3 0 -9 19 -12 42 -4 32
-1 48 15 71 11 15 21 27 23 25 1 -2 -3 -33 -9 -70z m228 -114 c55 -100 55
-103 48 -159 l-7 -57 -68 94 c-57 78 -67 98 -62 122 9 48 26 108 30 105 1 -2
28 -50 59 -105z"/>
<path d="M3934 2156 c-28 -28 -34 -41 -34 -77 0 -57 -9 -89 -25 -89 -44 0 -63
-79 -73 -308 -5 -109 -4 -149 6 -168 10 -19 11 -54 6 -145 -7 -117 -7 -119
-32 -126 -14 -3 -38 -1 -53 4 -34 13 -39 9 -39 -32 0 -18 -11 -63 -25 -100
-31 -81 -14 -84 29 -6 37 68 116 121 103 69 -4 -13 -11 -66 -18 -118 -6 -52
-17 -107 -25 -123 l-15 -27 108 0 c99 1 106 2 83 15 -14 8 -38 15 -55 15 -59
1 -60 5 -40 144 l18 126 57 11 c89 17 87 14 66 121 -10 51 -21 100 -23 108 -3
8 5 0 18 -19 30 -44 34 -28 13 46 -19 66 -19 76 -4 252 10 121 9 134 -10 188
-11 32 -21 62 -23 67 -1 5 14 13 33 18 44 12 69 34 86 75 19 45 18 60 -11 88
-36 37 -79 33 -121 -9z m-9 -846 c15 -48 12 -60 -13 -60 -15 0 -15 2 -2 11 11
8 7 9 -17 4 -37 -7 -38 -5 -23 65 22 100 22 99 32 60 6 -19 16 -55 23 -80z"/>
<path d="M6640 2067 c-37 -19 -70 -74 -70 -118 0 -31 -6 -43 -32 -63 -37 -28
-63 -75 -143 -254 -56 -128 -109 -227 -147 -275 -17 -21 -19 -30 -10 -39 18
-18 30 -1 97 127 55 106 114 205 120 205 6 0 -6 -175 -17 -244 -6 -43 -27
-106 -53 -161 l-42 -92 -132 -59 c-72 -32 -131 -64 -131 -70 0 -18 81 -176 88
-170 3 3 -1 37 -8 76 -7 39 -11 72 -9 74 2 2 54 27 114 54 l110 50 72 102 c39
55 74 102 77 103 3 1 28 -25 56 -58 34 -39 81 -120 138 -232 62 -125 91 -173
104 -173 9 0 43 22 75 48 71 60 87 78 74 86 -5 4 -12 2 -15 -3 -3 -4 -33 -19
-67 -31 l-61 -23 -20 24 c-25 31 -80 147 -156 329 l-60 145 14 89 c7 48 15 90
18 93 3 3 10 -15 16 -39 9 -36 25 -57 90 -116 60 -55 82 -82 95 -120 32 -87
69 -115 44 -32 -7 22 -45 87 -85 143 -108 151 -154 254 -154 342 0 29 -6 47
-20 60 -27 24 -17 34 28 28 31 -4 44 0 69 21 61 51 68 143 13 171 -35 18 -48
18 -80 2z"/>
<path d="M1229 2047 c-19 -12 -37 -34 -41 -47 -4 -14 -11 -43 -17 -66 -8 -31
-21 -47 -55 -70 -93 -61 -172 -187 -191 -304 -10 -61 -17 -74 -66 -122 -53
-51 -64 -77 -26 -57 49 27 86 62 96 92 5 18 21 71 36 119 23 77 32 93 81 142
31 31 60 56 64 56 13 0 0 -74 -34 -210 -23 -89 -30 -133 -25 -154 13 -49 -46
-206 -91 -243 -41 -34 -187 -126 -215 -137 l-32 -11 32 -84 c26 -70 37 -87 59
-94 40 -13 56 6 22 28 -23 15 -26 24 -26 74 0 65 7 74 101 134 82 51 118 92
169 190 25 48 48 87 51 87 10 0 83 -93 119 -150 106 -175 190 -325 190 -341 0
-31 50 -20 90 20 22 22 70 86 70 94 0 15 -27 4 -60 -23 -19 -17 -41 -30 -50
-30 -27 1 -178 223 -245 360 -51 106 -57 157 -30 277 22 97 24 101 35 83 6 -8
10 -27 10 -41 0 -38 89 -155 98 -130 1 4 -15 43 -37 87 -21 43 -47 115 -56
159 -10 44 -23 90 -31 102 -24 39 -18 53 24 53 83 0 143 101 92 155 -29 31
-67 32 -111 2z"/>
<path d="M2709 2011 c-23 -23 -39 -48 -39 -62 -1 -33 -21 -65 -57 -92 -90 -65
-193 -149 -216 -177 -15 -17 -48 -67 -74 -110 -29 -49 -54 -80 -64 -80 -9 0
-37 -11 -60 -25 -44 -25 -44 -25 -14 -25 80 0 102 15 190 133 86 116 177 199
197 179 23 -23 17 -94 -19 -199 -31 -92 -34 -110 -25 -141 10 -32 7 -41 -30
-111 -47 -89 -64 -110 -98 -123 -45 -18 -174 -47 -199 -45 -19 2 -26 -4 -32
-28 -13 -56 -18 -105 -9 -105 4 0 30 22 57 49 41 41 62 53 137 77 95 30 103
36 189 146 29 37 56 67 60 68 14 0 99 -62 140 -103 38 -36 39 -39 32 -90 -4
-28 -11 -68 -16 -87 -5 -19 -9 -47 -9 -61 0 -15 -9 -38 -20 -52 -11 -14 -20
-28 -20 -31 0 -3 45 -6 100 -6 102 0 132 13 60 25 -22 4 -49 14 -61 24 l-21
17 23 117 23 118 -50 47 c-109 106 -119 119 -106 147 16 35 52 219 52 269 1
39 1 40 16 21 8 -11 26 -42 41 -70 19 -38 46 -66 110 -114 47 -35 89 -75 93
-87 8 -20 37 -44 54 -44 3 0 0 13 -5 29 -10 30 -58 78 -133 136 -21 17 -52 44
-68 60 -27 29 -138 238 -138 262 0 7 13 9 39 6 34 -5 43 -1 77 30 31 28 38 41
38 72 0 27 -6 43 -23 56 -38 31 -78 24 -122 -20z"/>
</g>
</svg>
