<?xml version="1.0" standalone="no"?>
<!DOCTYPE svg PUBLIC "-//W3C//DTD SVG 20010904//EN"
 "http://www.w3.org/TR/2001/REC-SVG-20010904/DTD/svg10.dtd">
<svg version="1.0" xmlns="http://www.w3.org/2000/svg"
 width="1000.000000pt" height="301.000000pt" viewBox="0 0 1000.000000 301.000000"
 preserveAspectRatio="xMidYMid meet">

<g transform="translate(0.000000,301.000000) scale(0.100000,-0.100000)"
fill="#000000" stroke="none">
<path d="M6615 2891 c-43 -19 -103 -80 -132 -133 -10 -20 -18 -58 -19 -98 -1
-80 -12 -138 -28 -147 -6 -4 -29 -8 -51 -9 -34 -1 -45 -8 -87 -54 -56 -63
-171 -284 -249 -479 l-53 -133 67 -203 68 -202 -207 -462 c-205 -457 -208
-463 -259 -508 l-53 -45 57 -56 c32 -32 92 -95 134 -141 l76 -83 83 9 83 8
-49 31 c-36 24 -64 56 -112 129 -35 54 -64 107 -64 118 0 11 24 66 54 122 30
56 111 230 181 386 69 156 130 288 134 292 5 5 12 -4 15 -20 20 -82 38 -133
46 -128 17 10 22 108 10 188 -12 81 -12 84 11 120 13 20 27 37 30 37 15 0 201
-164 245 -216 27 -32 68 -77 92 -101 23 -23 42 -46 42 -50 0 -59 -354 -393
-417 -393 -21 0 -16 -17 22 -66 19 -25 65 -108 102 -185 38 -76 71 -139 76
-139 12 0 8 49 -17 185 l-24 130 21 35 c34 59 121 160 217 254 50 49 93 100
96 113 4 12 9 23 13 23 4 0 24 72 46 159 l39 160 -114 232 -113 233 -14 130
c-12 107 -12 150 -2 233 14 124 8 187 -26 254 -30 61 -32 89 -6 89 10 0 32 7
47 15 19 9 41 13 63 9 18 -4 36 -3 40 2 3 5 18 17 32 26 45 28 80 104 85 180
4 66 4 68 -32 108 -54 60 -126 75 -199 41z m-419 -982 c-7 -30 -19 -97 -27
-149 -7 -52 -15 -98 -19 -103 -10 -12 -43 180 -33 195 19 31 87 117 90 114 2
-2 -3 -27 -11 -57z m458 -330 l118 -220 -12 -79 c-7 -44 -9 -96 -6 -117 l6
-38 -32 36 c-61 68 -268 356 -268 373 0 27 62 266 69 266 3 0 59 -99 125 -221z"/>
<path d="M5135 2811 c-48 -22 -101 -79 -128 -139 -15 -35 -18 -59 -14 -106 3
-34 0 -79 -5 -102 -8 -34 -16 -43 -51 -60 -22 -10 -49 -30 -59 -44 -42 -60
-72 -272 -89 -638 l-11 -248 30 -59 30 -60 -17 -243 c-13 -179 -21 -246 -31
-252 -34 -21 -99 -21 -139 -1 -22 12 -52 21 -66 21 -25 0 -25 -1 -25 -82 0
-76 -4 -94 -50 -211 -65 -168 -67 -217 -4 -144 16 19 54 81 84 140 l55 106 65
30 c36 16 66 28 68 26 1 -1 -12 -112 -29 -245 -28 -220 -34 -248 -59 -289 -16
-25 -30 -52 -32 -58 -2 -10 57 -13 259 -15 144 -2 259 0 255 4 -20 20 -168 71
-241 84 -46 7 -86 16 -89 18 -3 3 12 117 32 253 20 137 36 254 36 261 0 6 7
12 15 12 9 0 75 14 147 31 l131 31 -6 67 c-4 36 -22 131 -41 211 -51 218 -51
212 -17 150 34 -65 119 -152 106 -110 -5 14 -29 95 -55 181 l-47 156 18 224
c34 415 35 427 10 509 -12 40 -32 95 -45 124 -31 72 -26 86 34 86 93 0 189 92
212 203 12 55 11 61 -12 105 -43 82 -139 113 -225 73z m-111 -1713 c17 -81 34
-138 44 -145 8 -7 13 -15 10 -19 -10 -10 -151 -55 -156 -49 -7 7 59 345 67
345 4 0 19 -60 35 -132z"/>
<path d="M8253 2740 c-85 -43 -143 -144 -143 -249 0 -58 -3 -68 -35 -107 -20
-24 -41 -41 -49 -38 -30 12 -126 -163 -276 -501 -56 -126 -125 -274 -152 -328
-60 -116 -143 -247 -158 -247 -6 0 -18 -15 -27 -34 -12 -27 -14 -44 -7 -75 l9
-41 43 28 c39 24 52 45 127 192 133 265 274 519 288 520 5 0 6 -8 3 -17 -2
-10 -10 -101 -16 -203 -6 -102 -20 -241 -32 -310 -19 -115 -27 -138 -107 -309
l-86 -185 -275 -127 c-151 -70 -279 -129 -285 -132 -11 -4 179 -397 192 -397
32 1 32 18 2 174 -17 86 -30 158 -28 160 2 2 92 42 199 90 107 48 215 97 240
109 40 20 61 45 188 232 78 116 146 211 151 213 5 2 24 -16 42 -40 18 -24 56
-70 85 -103 28 -33 70 -89 94 -125 42 -66 227 -430 313 -618 43 -94 50 -103
70 -97 58 17 168 96 261 185 97 95 100 99 83 117 -15 16 -20 16 -40 4 -30 -20
-62 -36 -127 -65 -129 -57 -139 -56 -189 3 -62 74 -145 253 -347 743 l-93 228
26 190 c14 105 29 187 33 183 4 -4 17 -44 29 -88 l22 -80 159 -150 c156 -147
160 -152 191 -230 64 -159 106 -222 131 -197 8 8 5 35 -14 104 -24 89 -31 101
-167 292 -257 361 -315 486 -336 731 -8 90 -16 111 -52 141 -40 34 -22 45 60
38 86 -8 133 11 187 72 69 79 94 199 57 271 -44 83 -157 117 -244 73z"/>
<path d="M2057 2688 c-48 -13 -130 -87 -156 -141 -12 -24 -21 -62 -21 -84 0
-22 -11 -65 -24 -96 -21 -46 -32 -58 -70 -77 -25 -12 -69 -42 -97 -68 -52 -47
-185 -205 -232 -277 -41 -63 -75 -165 -103 -308 -31 -164 -39 -183 -75 -196
-20 -7 -27 -15 -23 -25 4 -10 -2 -17 -18 -21 -20 -6 -125 -132 -136 -164 -9
-27 40 -6 140 60 l107 70 25 77 c14 42 46 149 71 237 55 192 81 234 210 347
88 77 113 92 102 64 -3 -8 -11 -52 -17 -98 -6 -46 -38 -185 -71 -311 -61 -230
-66 -268 -54 -367 6 -46 2 -71 -25 -155 -42 -131 -102 -255 -142 -296 -18 -18
-121 -91 -228 -162 -166 -110 -204 -130 -253 -139 -31 -6 -57 -15 -57 -22 0
-28 123 -343 142 -363 19 -20 31 -23 100 -23 99 0 102 15 13 67 l-65 38 0 111
0 112 58 53 c32 30 95 75 139 101 126 75 226 160 271 232 22 34 75 129 117
209 42 81 79 147 81 147 5 0 73 -74 131 -145 65 -78 85 -110 312 -498 131
-225 195 -344 202 -378 6 -27 16 -49 23 -49 7 0 35 7 62 17 36 12 67 34 114
82 70 71 185 232 179 250 -3 7 -33 -6 -73 -29 -38 -22 -71 -39 -73 -36 -2 2
19 24 46 48 51 46 60 50 337 144 l111 38 154 192 154 193 25 -16 c105 -67 289
-208 308 -236 13 -19 25 -50 28 -68 3 -19 -13 -132 -35 -252 -40 -217 -40
-217 -80 -264 -28 -33 -37 -50 -28 -55 18 -11 489 -10 482 1 -6 10 -10 11
-173 61 -72 22 -106 37 -116 53 -13 20 -10 47 34 262 l49 240 -171 172 c-142
143 -170 176 -166 195 3 13 17 64 32 113 43 145 78 348 79 468 2 80 5 103 13
92 6 -8 42 -74 80 -146 l69 -131 120 -91 c183 -138 235 -186 256 -234 12 -29
30 -50 51 -61 18 -9 52 -37 75 -61 23 -25 45 -43 48 -40 3 3 -20 59 -51 125
l-57 119 -100 80 c-234 186 -278 226 -325 298 -63 96 -241 457 -235 474 4 10
15 12 42 6 58 -12 97 -6 152 24 61 33 111 94 129 158 11 39 10 51 -4 90 -29
76 -114 125 -189 110 -101 -21 -205 -137 -207 -230 -1 -16 -11 -50 -24 -74
-24 -46 -32 -53 -351 -295 -82 -63 -162 -127 -176 -143 -15 -15 -77 -109 -139
-208 -132 -212 -135 -215 -170 -215 -23 0 -267 -127 -258 -135 2 -1 48 4 103
12 55 7 118 16 140 18 23 3 55 14 73 25 19 12 99 109 194 238 157 211 165 220
276 306 107 83 116 88 128 71 21 -28 27 -79 21 -169 -4 -63 -15 -110 -52 -211
-81 -220 -88 -264 -59 -346 l17 -46 -78 -149 c-93 -177 -116 -214 -153 -241
-16 -12 -106 -41 -202 -67 -134 -36 -189 -46 -242 -45 -38 1 -74 -3 -79 -8 -6
-6 -19 -70 -29 -143 -11 -73 -22 -135 -24 -137 -8 -8 -236 311 -331 462 -72
115 -195 358 -229 453 -30 84 -32 132 -10 257 15 87 58 289 71 330 4 13 14
-13 28 -77 25 -113 55 -163 165 -282 l72 -78 -6 -60 c-9 -75 12 -151 57 -209
51 -68 57 -64 57 44 0 94 0 94 -55 207 -31 62 -76 147 -102 189 -88 144 -139
277 -162 426 -15 89 -47 187 -72 219 -20 25 -23 43 -13 69 4 12 17 14 57 10
64 -6 109 10 167 63 70 63 102 151 80 218 -14 44 -67 92 -117 105 -43 12 -45
12 -96 -1z"/>
</g>
</svg>
