<?xml version="1.0" standalone="yes"?>
<svg xmlns="http://www.w3.org/2000/svg" width="709" height="301">
<path style="fill:#ffffff; stroke:none;" d="M0 0L0 301L709 301L709 0L0 0z"/>
<path style="fill:#a2a0a1; stroke:none;" d="M503.667 79.3333L504.333 79.6667L503.667 79.3333z"/>
<path style="fill:#514e4f; stroke:none;" d="M505 79L506 80L505 79z"/>
<path style="fill:#232021; stroke:none;" d="M457 197C459.619 203.185 465.537 211.643 473 210L465.643 198L470.36 186L483 158L485 161L486 161L487 149C492.179 151.683 505.89 161.302 505.458 168C504.992 175.238 492.26 183.101 487 187L494 201L495 201L494.731 189L513.443 157L503.846 132L500 97C503.65 96.4942 508.647 95.5684 511.076 92.4506C514.297 88.3185 513.958 80.9417 507.995 79.841C496.114 77.6482 499.344 93.4632 493.721 98.1204C485.519 104.915 474.044 120.229 475.228 132.004C475.833 138.017 480.541 143.9 479.987 150C479.534 154.986 475.88 160.521 473.78 165C469.027 175.139 465.681 189.626 457 197z"/>
<path style="fill:#727071; stroke:none;" d="M508 79L509 80L508 79z"/>
<path style="fill:#a2a0a1; stroke:none;" d="M509 79L510 80L509 79z"/>
<path style="fill:#727071; stroke:none;" d="M502 80L503 81L502 80z"/>
<path style="fill:#514e4f; stroke:none;" d="M510 80L511 81L510 80z"/>
<path style="fill:#a2a0a1; stroke:none;" d="M511 80L512 81L511 80M370 81L371 82L370 81M500 81L501 82L500 81z"/>
<path style="fill:#514e4f; stroke:none;" d="M501 81L502 82L501 81z"/>
<path style="fill:#a2a0a1; stroke:none;" d="M512 81L513 82L512 81M366 82L367 83L366 82z"/>
<path style="fill:#727071; stroke:none;" d="M367 82L368 83L367 82z"/>
<path style="fill:#232021; stroke:none;" d="M339 176L335 196L336 196C340.018 189.376 342.266 183.71 350 181L344 210L364 210L364 209L351 206L356.589 180.728L369 177L365 154L366 154L370 160L364 101C367.674 100.084 371.571 99.6966 374.196 96.6559C381.806 87.8389 370.312 76.8164 362.653 86.2137C359.427 90.1719 361.241 94.6499 359.374 98.8958C357.828 102.414 354.339 104.184 353.059 108.015C347.854 123.596 352.02 139.697 352.065 155.17C352.1 167.117 353.447 178.047 339 176z"/>
<path style="fill:#727071; stroke:none;" d="M372 82L373 83L372 82z"/>
<path style="fill:#a2a0a1; stroke:none;" d="M373 82L374 83L373 82M499 82L500 83L499 82M513 82L514 83L513 82z"/>
<path style="fill:#514e4f; stroke:none;" d="M365 83L366 84L365 83z"/>
<path style="fill:#727071; stroke:none;" d="M374 83L375 84L374 83z"/>
<path style="fill:#514e4f; stroke:none;" d="M499 83L500 84L499 83z"/>
<path style="fill:#a2a0a1; stroke:none;" d="M363 84L364 85L363 84z"/>
<path style="fill:#514e4f; stroke:none;" d="M375 84L376 85L375 84z"/>
<path style="fill:#727071; stroke:none;" d="M498 84L499 85L498 84z"/>
<path style="fill:#514e4f; stroke:none;" d="M513 84L513 88L514 88L513 84z"/>
<path style="fill:#a2a0a1; stroke:none;" d="M362 85L363 86L362 85z"/>
<path style="fill:#514e4f; stroke:none;" d="M376 85L377 86L376 85z"/>
<path style="fill:#a2a0a1; stroke:none;" d="M497 85L498 86L497 85z"/>
<path style="fill:#514e4f; stroke:none;" d="M497 86L498 87L497 86M361 87L362 88L361 87z"/>
<path style="fill:#727071; stroke:none;" d="M377 87L378 88L377 87z"/>
<path style="fill:#a2a0a1; stroke:none;" d="M496 87L496 90L497 90L496 87M360 88L361 89L360 88z"/>
<path style="fill:#514e4f; stroke:none;" d="M377 88L377 91L378 91L377 88z"/>
<path style="fill:#727071; stroke:none;" d="M513 88L514 89L513 88z"/>
<path style="fill:#514e4f; stroke:none;" d="M360 89L361 90L360 89M512.667 89.3333L513.333 89.6667L512.667 89.3333z"/>
<path style="fill:#a2a0a1; stroke:none;" d="M359 90L359 96L360 96L359 90z"/>
<path style="fill:#727071; stroke:none;" d="M496 90L497 91L496 90M512 90L513 91L512 90z"/>
<path style="fill:#a2a0a1; stroke:none;" d="M513 90L514 91L513 90M377 91L378 92L377 91M496 91L496 95L497 95L496 91M512.333 91.6667L512.667 92.3333L512.333 91.6667M98 93L99 94L98 93z"/>
<path style="fill:#514e4f; stroke:none;" d="M376 93L377 94L376 93z"/>
<path style="fill:#727071; stroke:none;" d="M511 93L512 94L511 93z"/>
<path style="fill:#a2a0a1; stroke:none;" d="M634.667 93.3333L635.333 93.6667L634.667 93.3333z"/>
<path style="fill:#514e4f; stroke:none;" d="M636 93L637 94L636 93z"/>
<path style="fill:#232021; stroke:none;" d="M594 170C602.974 164.813 610.905 144.502 615 135L616 135C616 149.887 615.703 174.382 603.606 185.352C596.927 191.409 585.813 193.554 578 198L586 216L587 216C586.473 211.849 583.837 205.081 586.042 201.225C589.317 195.499 600.553 194.002 605.91 190.637C612.217 186.673 618.695 175.952 621 169C635.562 179.344 643.358 200.024 650 216C656.795 214.685 663.949 209.236 667 203C663.132 204.29 657.107 208.468 653.018 206.843C647.333 204.583 644.534 195.13 642.284 190C638.139 180.549 631.417 169.196 629.779 159C628.814 152.989 630.965 146.13 631 140L658 176L634.927 134L629 116L629 114C634.038 112.8 639.525 113.581 642.867 108.891C647.197 102.814 645.545 92.0472 636.004 93.9784C626.778 95.8457 629.514 105.363 625.323 110.961C615.887 123.564 610.694 136.872 603.63 151C600.48 157.298 594.791 162.889 594 170z"/>
<path style="fill:#514e4f; stroke:none;" d="M638 93L639 94L638 93z"/>
<path style="fill:#727071; stroke:none;" d="M639 93L640 94L639 93z"/>
<path style="fill:#a2a0a1; stroke:none;" d="M640 93L641 94L640 93z"/>
<path style="fill:#727071; stroke:none;" d="M95 94L96 95L95 94z"/>
<path style="fill:#232021; stroke:none;" d="M52 163C64.435 157.117 63.0577 147.081 68.3264 136C71.4154 129.503 76.528 125.414 82 121C81.1556 131.699 77.5689 141.553 75.5147 152C74.5886 156.71 75.8856 161.298 74.5571 166C70.5602 180.146 56.8758 194.123 42 197C43.6779 205.026 45.4585 214.689 55 215L55 214C49.8789 210.941 46.9589 205.707 50.6034 200.004C54.4851 193.93 61.759 191.385 66.9853 186.79C73.4838 181.077 78.0718 172.046 81 164C95.1649 174.075 108.449 198.723 114 215C121.159 212.874 125.85 207.62 129 201C125.644 202.113 121.56 206.156 118.039 205.883C112.832 205.481 107.815 194.868 105.116 190.996C98.7302 181.837 88.8809 168.569 88.2739 157C87.8661 149.227 90.9138 140.406 93 133C96.162 140.347 97.0318 148.203 105 152C101.337 140.426 88.6089 123.649 92 111C101.027 112.73 112.201 99.0469 100.945 94.7577C89.9306 90.5606 89.5328 105.544 85.3472 110.791C80.0984 117.371 72.8388 121.626 68.1049 129C63.7064 135.852 64.313 143.69 61.3364 150.91C59.3688 155.682 54.4254 158.416 52 163z"/>
<path style="fill:#727071; stroke:none;" d="M101 94L102 95L101 94z"/>
<path style="fill:#a2a0a1; stroke:none;" d="M376 94L377 95L376 94z"/>
<path style="fill:#514e4f; stroke:none;" d="M507 94L507 97L508 97L507 94z"/>
<path style="fill:#727071; stroke:none;" d="M508 94L509 95L508 94z"/>
<path style="fill:#a2a0a1; stroke:none;" d="M509 94L510 95L509 94z"/>
<path style="fill:#727071; stroke:none;" d="M510 94L511 95L510 94z"/>
<path style="fill:#514e4f; stroke:none;" d="M633 94L634 95L633 94z"/>
<path style="fill:#a2a0a1; stroke:none;" d="M642 94L643 95L642 94z"/>
<path style="fill:#727071; stroke:none;" d="M93 95L94 96L93 95z"/>
<path style="fill:#a2a0a1; stroke:none;" d="M103 95L104 96L103 95z"/>
<path style="fill:#727071; stroke:none;" d="M375 95L376 96L375 95z"/>
<path style="fill:#a2a0a1; stroke:none;" d="M631 95L632 96L631 95z"/>
<path style="fill:#514e4f; stroke:none;" d="M643 95L644 96L643 95z"/>
<path style="fill:#a2a0a1; stroke:none;" d="M91 96L92 97L91 96M104 96L105 97L104 96z"/>
<path style="fill:#727071; stroke:none;" d="M245 96L246 97L245 96z"/>
<path style="fill:#514e4f; stroke:none;" d="M246.667 96.3333L247.333 96.6667L246.667 96.3333z"/>
<path style="fill:#232021; stroke:none;" d="M187 156L187 157C190.751 156.301 195.485 156.376 198.7 154.142C210.202 146.15 213.467 129.9 228 125C229.364 135.79 225.811 142.809 223.044 153C221.934 157.087 223.767 161.046 222.544 165C217.373 181.724 203.419 187.864 187 188L186 200L198.004 191.046L213.985 184.914L230 166L231 166C235.315 171.085 242.576 173.372 246.258 179.04C251.162 186.59 245.264 201.649 242 209L260 210L260 209C257.209 207.93 253.601 207.331 251.319 205.297C245.199 199.841 254.071 187.864 252.226 181C250.209 173.493 239.55 170.577 237.812 163C235.45 152.698 244.459 140.309 242 129L249 139L252 139L239 114C244.471 113.373 249.621 113.934 253.296 108.895C258.055 102.371 252.765 94.7873 245.004 97.304C237.471 99.7468 237.798 108.684 232.811 113.711C226.285 120.289 217.654 124.577 211.185 131.174C201.828 140.717 199.879 150.022 187 156z"/>
<path style="fill:#514e4f; stroke:none;" d="M249.667 96.3333L250.333 96.6667L249.667 96.3333M360.333 96.6667L360.667 97.3333L360.333 96.6667M374 96L375 97L374 96M503 96L504 97L503 96z"/>
<path style="fill:#a2a0a1; stroke:none;" d="M504 96L505 97L504 96M506 96L507 97L506 96M508 96L509 97L508 96M630 96L631 97L630 96z"/>
<path style="fill:#727071; stroke:none;" d="M644 96L645 97L644 96z"/>
<path style="fill:#a2a0a1; stroke:none;" d="M105 97L106 98L105 97M242 97L243 98L242 97z"/>
<path style="fill:#727071; stroke:none;" d="M243 97L244 98L243 97M252 97L253 98L252 97M495 97L496 98L495 97M500 97L501 98L500 97z"/>
<path style="fill:#a2a0a1; stroke:none;" d="M501 97L502 98L501 97z"/>
<path style="fill:#727071; stroke:none;" d="M502 97L503 98L502 97z"/>
<path style="fill:#a2a0a1; stroke:none;" d="M629 97L630 98L629 97z"/>
<path style="fill:#514e4f; stroke:none;" d="M90 98L91 99L90 98M105.333 98.6667L105.667 99.3333L105.333 98.6667z"/>
<path style="fill:#a2a0a1; stroke:none;" d="M241 98L242 99L241 98M359 98L360 99L359 98z"/>
<path style="fill:#514e4f; stroke:none;" d="M372 98L373 99L372 98z"/>
<path style="fill:#a2a0a1; stroke:none;" d="M491 98L491 99L495 99L491 98M500.333 98.6667L500.667 99.3333L500.333 98.6667z"/>
<path style="fill:#514e4f; stroke:none;" d="M629 98L630 99L629 98z"/>
<path style="fill:#a2a0a1; stroke:none;" d="M645 98L646 99L645 98z"/>
<path style="fill:#727071; stroke:none;" d="M89 99L90 100L89 99z"/>
<path style="fill:#a2a0a1; stroke:none;" d="M240 99L241 100L240 99z"/>
<path style="fill:#514e4f; stroke:none;" d="M254 99L255 100L254 99z"/>
<path style="fill:#727071; stroke:none;" d="M359 99L360 100L359 99M371 99L372 100L371 99z"/>
<path style="fill:#a2a0a1; stroke:none;" d="M489 99L490 100L489 99z"/>
<path style="fill:#514e4f; stroke:none;" d="M490 99L491 100L490 99z"/>
<path style="fill:#a2a0a1; stroke:none;" d="M628 99L629 100L628 99M106.333 100.667L106.667 101.333L106.333 100.667M239 100L240 101L239 100M255 100L256 101L255 100z"/>
<path style="fill:#514e4f; stroke:none;" d="M365 100L365 101L369 101L365 100z"/>
<path style="fill:#a2a0a1; stroke:none;" d="M369 100L370 101L369 100z"/>
<path style="fill:#514e4f; stroke:none;" d="M489 100L490 101L489 100z"/>
<path style="fill:#727071; stroke:none;" d="M500 100L501 101L500 100z"/>
<path style="fill:#514e4f; stroke:none;" d="M628 100L629 101L628 100z"/>
<path style="fill:#727071; stroke:none;" d="M88 101L89 102L88 101M255 101L256 102L255 101z"/>
<path style="fill:#a2a0a1; stroke:none;" d="M358 101L359 102L358 101z"/>
<path style="fill:#514e4f; stroke:none;" d="M364 101L365 102L364 101M488 101L489 102L488 101z"/>
<path style="fill:#a2a0a1; stroke:none;" d="M627 101L628 102L627 101z"/>
<path style="fill:#514e4f; stroke:none;" d="M105.333 102.667L105.667 103.333L105.333 102.667z"/>
<path style="fill:#727071; stroke:none;" d="M238 102L239 103L238 102z"/>
<path style="fill:#a2a0a1; stroke:none;" d="M355 102L356 103L355 102z"/>
<path style="fill:#727071; stroke:none;" d="M356 102L357 103L356 102z"/>
<path style="fill:#a2a0a1; stroke:none;" d="M364 102L365 103L364 102z"/>
<path style="fill:#727071; stroke:none;" d="M487 102L488 103L487 102z"/>
<path style="fill:#a2a0a1; stroke:none;" d="M501 102L502 103L501 102z"/>
<path style="fill:#727071; stroke:none;" d="M627 102L628 103L627 102z"/>
<path style="fill:#a2a0a1; stroke:none;" d="M87 103L87 107L88 107L87 103M354 103L355 104L354 103M486 103L487 104L486 103z"/>
<path style="fill:#514e4f; stroke:none;" d="M645 103L646 104L645 103z"/>
<path style="fill:#a2a0a1; stroke:none;" d="M105 104L106 105L105 104z"/>
<path style="fill:#514e4f; stroke:none;" d="M237.333 104.667L237.667 105.333L237.333 104.667z"/>
<path style="fill:#727071; stroke:none;" d="M255 104L256 105L255 104z"/>
<path style="fill:#a2a0a1; stroke:none;" d="M365 104L366 105L365 104M485 104L486 105L485 104z"/>
<path style="fill:#727071; stroke:none;" d="M502 104L503 105L502 104z"/>
<path style="fill:#a2a0a1; stroke:none;" d="M645.333 104.667L645.667 105.333L645.333 104.667M255.333 105.667L255.667 106.333L255.333 105.667z"/>
<path style="fill:#727071; stroke:none;" d="M353 105L354 106L353 105M485 105L486 106L485 105M104 106L105 107L104 106z"/>
<path style="fill:#a2a0a1; stroke:none;" d="M236 106L236 109L237 109L236 106z"/>
<path style="fill:#514e4f; stroke:none;" d="M353 106L354 107L353 106z"/>
<path style="fill:#a2a0a1; stroke:none;" d="M366 106L367 107L366 106M484 106L485 107L484 106M503 106L503 111L504 111L503 106z"/>
<path style="fill:#514e4f; stroke:none;" d="M644 106L645 107L644 106M87 107L88 108L87 107M103 107L104 108L103 107z"/>
<path style="fill:#727071; stroke:none;" d="M254 107L255 108L254 107z"/>
<path style="fill:#a2a0a1; stroke:none;" d="M352.333 107.667L352.667 108.333L352.333 107.667z"/>
<path style="fill:#514e4f; stroke:none;" d="M366 107L367 108L366 107M484 107L485 108L484 107M627 107L628 108L627 107z"/>
<path style="fill:#a2a0a1; stroke:none;" d="M644 107L645 108L644 107z"/>
<path style="fill:#514e4f; stroke:none;" d="M102 108L103 109L102 108z"/>
<path style="fill:#a2a0a1; stroke:none;" d="M483 108L484 109L483 108z"/>
<path style="fill:#514e4f; stroke:none;" d="M643 108L644 109L643 108z"/>
<path style="fill:#a2a0a1; stroke:none;" d="M86 109L87 110L86 109z"/>
<path style="fill:#514e4f; stroke:none;" d="M101 109L102 110L101 109z"/>
<path style="fill:#727071; stroke:none;" d="M236 109L237 110L236 109z"/>
<path style="fill:#a2a0a1; stroke:none;" d="M253 109L254 110L253 109z"/>
<path style="fill:#727071; stroke:none;" d="M352 109L353 110L352 109z"/>
<path style="fill:#a2a0a1; stroke:none;" d="M367 109L368 110L367 109M626 109L627 110L626 109z"/>
<path style="fill:#514e4f; stroke:none;" d="M642 109L643 110L642 109z"/>
<path style="fill:#a2a0a1; stroke:none;" d="M100 110L101 111L100 110M235 110L236 111L235 110M252 110L253 111L252 110z"/>
<path style="fill:#727071; stroke:none;" d="M367 110L368 111L367 110z"/>
<path style="fill:#a2a0a1; stroke:none;" d="M482 110L483 111L482 110M625 110L626 111L625 110M85 111L86 112L85 111z"/>
<path style="fill:#727071; stroke:none;" d="M92 111L93 112L92 111z"/>
<path style="fill:#514e4f; stroke:none;" d="M93 111L94 112L93 111M97 111L98 112L97 111z"/>
<path style="fill:#727071; stroke:none;" d="M98 111L99 112L98 111z"/>
<path style="fill:#a2a0a1; stroke:none;" d="M251 111L252 112L251 111M368 111L369 112L368 111z"/>
<path style="fill:#514e4f; stroke:none;" d="M625 111L626 112L625 111z"/>
<path style="fill:#a2a0a1; stroke:none;" d="M84 112L85 113L84 112M91.3333 112.667L91.6667 113.333L91.3333 112.667M94 112L94 113L97 113L94 112M234 112L235 113L234 112z"/>
<path style="fill:#727071; stroke:none;" d="M249 112L250 113L249 112z"/>
<path style="fill:#a2a0a1; stroke:none;" d="M250 112L251 113L250 112M351 112L352 113L351 112z"/>
<path style="fill:#727071; stroke:none;" d="M481 112L482 113L481 112M624 112L625 113L624 112z"/>
<path style="fill:#514e4f; stroke:none;" d="M639 112L640 113L639 112z"/>
<path style="fill:#a2a0a1; stroke:none;" d="M82 113L83 114L82 113M233 113L234 114L233 113M240.667 113.333L241.333 113.667L240.667 113.333z"/>
<path style="fill:#514e4f; stroke:none;" d="M242 113L243 114L242 113z"/>
<path style="fill:#727071; stroke:none;" d="M247 113L248 114L247 113z"/>
<path style="fill:#a2a0a1; stroke:none;" d="M248 113L249 114L248 113z"/>
<path style="fill:#727071; stroke:none;" d="M351 113L351 117L352 117L351 113z"/>
<path style="fill:#a2a0a1; stroke:none;" d="M368 113L369 114L368 113z"/>
<path style="fill:#514e4f; stroke:none;" d="M502.333 113.667L502.667 114.333L502.333 113.667M622.667 113.333L623.333 113.667L622.667 113.333z"/>
<path style="fill:#727071; stroke:none;" d="M632 113L633 114L632 113z"/>
<path style="fill:#514e4f; stroke:none;" d="M633 113L633 114L637 114L633 113z"/>
<path style="fill:#727071; stroke:none;" d="M637 113L638 114L637 113z"/>
<path style="fill:#a2a0a1; stroke:none;" d="M638 113L639 114L638 113M80 114L81 115L80 114z"/>
<path style="fill:#514e4f; stroke:none;" d="M90 114L91 115L90 114M232 114L233 115L232 114M239.333 114.667L239.667 115.333L239.333 114.667z"/>
<path style="fill:#a2a0a1; stroke:none;" d="M245 114L246 115L245 114M480 114L481 115L480 114M629 114L631 116L629 114M79 115L80 116L79 115M91 115L92 116L91 115M230 115L231 116L230 115z"/>
<path style="fill:#514e4f; stroke:none;" d="M368.333 115.667L368.667 116.333L368.333 115.667M480 115L481 116L480 115z"/>
<path style="fill:#727071; stroke:none;" d="M502.333 115.667L502.667 116.333L502.333 115.667M620 115L621 116L620 115M629 115L630 116L629 115M78 116L79 117L78 116M229 116L230 117L229 116z"/>
<path style="fill:#a2a0a1; stroke:none;" d="M240 116L241 117L240 116M479 116L480 117L479 116M619 116L620 117L619 116M631 116L632 117L631 116z"/>
<path style="fill:#514e4f; stroke:none;" d="M77 117L78 118L77 117M92 117L93 118L92 117z"/>
<path style="fill:#727071; stroke:none;" d="M228 117L229 118L228 117z"/>
<path style="fill:#514e4f; stroke:none;" d="M479 117L480 118L479 117z"/>
<path style="fill:#a2a0a1; stroke:none;" d="M502 117L502 120L503 120L502 117z"/>
<path style="fill:#514e4f; stroke:none;" d="M619 117L620 118L619 117M76 118L77 119L76 118z"/>
<path style="fill:#a2a0a1; stroke:none;" d="M226 118L227 119L226 118z"/>
<path style="fill:#514e4f; stroke:none;" d="M227 118L228 119L227 118z"/>
<path style="fill:#727071; stroke:none;" d="M241 118L242 119L241 118z"/>
<path style="fill:#a2a0a1; stroke:none;" d="M350 118L350 121L351 121L350 118z"/>
<path style="fill:#514e4f; stroke:none;" d="M368.333 118.667L368.667 119.333L368.333 118.667z"/>
<path style="fill:#a2a0a1; stroke:none;" d="M478 118L479 119L478 118M618 118L619 119L618 118z"/>
<path style="fill:#727071; stroke:none;" d="M632 118L633 119L632 118z"/>
<path style="fill:#a2a0a1; stroke:none;" d="M75 119L76 120L75 119z"/>
<path style="fill:#727071; stroke:none;" d="M93 119L94 120L93 119z"/>
<path style="fill:#a2a0a1; stroke:none;" d="M225 119L226 120L225 119z"/>
<path style="fill:#727071; stroke:none;" d="M478 119L479 120L478 119z"/>
<path style="fill:#514e4f; stroke:none;" d="M618 119L619 120L618 119M632 119L632 123L633 123L632 119z"/>
<path style="fill:#a2a0a1; stroke:none;" d="M74 120L75 121L74 120z"/>
<path style="fill:#514e4f; stroke:none;" d="M93 120L94 121L93 120z"/>
<path style="fill:#a2a0a1; stroke:none;" d="M224 120L225 121L224 120z"/>
<path style="fill:#727071; stroke:none;" d="M242 120L243 121L242 120M368 120L369 121L368 120M502 120L502 123L503 123L502 120z"/>
<path style="fill:#a2a0a1; stroke:none;" d="M617 120L618 121L617 120M73 121L74 122L73 121z"/>
<path style="fill:#514e4f; stroke:none;" d="M81 121L82 122L81 121z"/>
<path style="fill:#a2a0a1; stroke:none;" d="M94.3333 121.667L94.6667 122.333L94.3333 121.667z"/>
<path style="fill:#514e4f; stroke:none;" d="M223 121L224 122L223 121z"/>
<path style="fill:#a2a0a1; stroke:none;" d="M368 121L368 126L369 126L368 121M477.333 121.667L477.667 122.333L477.333 121.667M72 122L73 123L72 122M80 122L82 124L80 122z"/>
<path style="fill:#ffffff; stroke:none;" d="M81 122L82 123L81 122z"/>
<path style="fill:#a2a0a1; stroke:none;" d="M221 122L222 123L221 122z"/>
<path style="fill:#514e4f; stroke:none;" d="M222 122L223 123L222 122z"/>
<path style="fill:#727071; stroke:none;" d="M243 122L244 123L243 122z"/>
<path style="fill:#a2a0a1; stroke:none;" d="M350.333 122.667L350.667 123.333L350.333 122.667z"/>
<path style="fill:#514e4f; stroke:none;" d="M478 122L479 123L478 122z"/>
<path style="fill:#727071; stroke:none;" d="M616 122L617 123L616 122z"/>
<path style="fill:#514e4f; stroke:none;" d="M72 123L73 124L72 123M78 123L79 124L78 123z"/>
<path style="fill:#a2a0a1; stroke:none;" d="M79 123L80 124L79 123z"/>
<path style="fill:#514e4f; stroke:none;" d="M94 123L95 124L94 123z"/>
<path style="fill:#a2a0a1; stroke:none;" d="M220 123L221 124L220 123z"/>
<path style="fill:#727071; stroke:none;" d="M477 123L478 124L477 123z"/>
<path style="fill:#514e4f; stroke:none;" d="M484 123L485 124L484 123M502 123L502 126L503 126L502 123z"/>
<path style="fill:#a2a0a1; stroke:none;" d="M633 123L633 128L634 128L633 123z"/>
<path style="fill:#727071; stroke:none;" d="M71 124L72 125L71 124M77 124L78 125L77 124z"/>
<path style="fill:#514e4f; stroke:none;" d="M81 124L82 125L81 124z"/>
<path style="fill:#727071; stroke:none;" d="M219 124L220 125L219 124z"/>
<path style="fill:#a2a0a1; stroke:none;" d="M244 124L245 125L244 124z"/>
<path style="fill:#727071; stroke:none;" d="M350 124L351 125L350 124z"/>
<path style="fill:#a2a0a1; stroke:none;" d="M476 124L477 125L476 124z"/>
<path style="fill:#514e4f; stroke:none;" d="M477.333 124.667L477.667 125.333L477.333 124.667z"/>
<path style="fill:#a2a0a1; stroke:none;" d="M483 124L482 126L484 126L483 124z"/>
<path style="fill:#727071; stroke:none;" d="M615 124L616 125L615 124M70 125L71 126L70 125M76 125L77 126L76 125M81 125L82 126L81 125z"/>
<path style="fill:#a2a0a1; stroke:none;" d="M217 125L218 126L217 125z"/>
<path style="fill:#514e4f; stroke:none;" d="M218 125L219 126L218 125z"/>
<path style="fill:#a2a0a1; stroke:none;" d="M225 125L226 126L225 125z"/>
<path style="fill:#514e4f; stroke:none;" d="M227 125L228 126L227 125M244 125L245 126L244 125M350 125L350 131L351 131L350 125z"/>
<path style="fill:#727071; stroke:none;" d="M476 125L477 126L476 125z"/>
<path style="fill:#a2a0a1; stroke:none;" d="M69 126L70 127L69 126z"/>
<path style="fill:#727071; stroke:none;" d="M75 126L76 127L75 126z"/>
<path style="fill:#a2a0a1; stroke:none;" d="M95.3333 126.667L95.6667 127.333L95.3333 126.667M216 126L217 127L216 126z"/>
<path style="fill:#514e4f; stroke:none;" d="M223 126L224 127L223 126z"/>
<path style="fill:#a2a0a1; stroke:none;" d="M224 126L225 127L224 126M227 126L228 127L227 126M245 126L246 127L245 126M475 126L476 127L475 126z"/>
<path style="fill:#727071; stroke:none;" d="M481 126L482 127L481 126z"/>
<path style="fill:#ffffff; stroke:none;" d="M482 126L480 136L481 136L482 126z"/>
<path style="fill:#727071; stroke:none;" d="M483 126L484 127L483 126z"/>
<path style="fill:#a2a0a1; stroke:none;" d="M503 126L503 131L504 131L503 126M614 126L615 127L614 126z"/>
<path style="fill:#514e4f; stroke:none;" d="M73 127L74 128L73 127z"/>
<path style="fill:#a2a0a1; stroke:none;" d="M80 127L80 132L81 132L80 127z"/>
<path style="fill:#727071; stroke:none;" d="M215 127L216 128L215 127M222 127L223 128L222 127z"/>
<path style="fill:#514e4f; stroke:none;" d="M245 127L246 128L245 127M367 127L368 128L367 127M480 127L478 128L478 129L480 127M68 128L69 129L68 128z"/>
<path style="fill:#a2a0a1; stroke:none;" d="M73 128L74 129L73 128z"/>
<path style="fill:#727071; stroke:none;" d="M95.3333 128.667L95.6667 129.333L95.3333 128.667z"/>
<path style="fill:#514e4f; stroke:none;" d="M214 128L215 129L214 128z"/>
<path style="fill:#a2a0a1; stroke:none;" d="M221 128L222 129L221 128z"/>
<path style="fill:#727071; stroke:none;" d="M228 128L229 129L228 128z"/>
<path style="fill:#a2a0a1; stroke:none;" d="M246 128L247 129L246 128z"/>
<path style="fill:#727071; stroke:none;" d="M367 128L367 134L368 134L367 128z"/>
<path style="fill:#a2a0a1; stroke:none;" d="M474 128L475 129L474 128M480 128L481 129L480 128M613 128L614 129L613 128z"/>
<path style="fill:#514e4f; stroke:none;" d="M633.333 128.667L633.667 129.333L633.333 128.667z"/>
<path style="fill:#a2a0a1; stroke:none;" d="M67 129L68 130L67 129z"/>
<path style="fill:#727071; stroke:none;" d="M72 129L73 130L72 129z"/>
<path style="fill:#a2a0a1; stroke:none;" d="M212 129L213 130L212 129M228 129L228 133L229 133L228 129z"/>
<path style="fill:#514e4f; stroke:none;" d="M242 129L242 131L244 129L242 129M246 129L247 130L246 129z"/>
<path style="fill:#727071; stroke:none;" d="M474.333 129.667L474.667 130.333L474.333 129.667z"/>
<path style="fill:#a2a0a1; stroke:none;" d="M479 129L479 132L480 132L479 129M482.333 129.667L482.667 130.333L482.333 129.667z"/>
<path style="fill:#514e4f; stroke:none;" d="M613 129L614 130L613 129z"/>
<path style="fill:#727071; stroke:none;" d="M71 130L72 131L71 130z"/>
<path style="fill:#514e4f; stroke:none;" d="M95 130L96 131L95 130z"/>
<path style="fill:#727071; stroke:none;" d="M211 130L212 131L211 130z"/>
<path style="fill:#514e4f; stroke:none;" d="M218 130L219 131L218 130M244 130L245 131L244 130z"/>
<path style="fill:#a2a0a1; stroke:none;" d="M247 130L248 131L247 130M612 130L613 131L612 130z"/>
<path style="fill:#727071; stroke:none;" d="M66 131L67 132L66 131M70 131L71 132L70 131z"/>
<path style="fill:#a2a0a1; stroke:none;" d="M96 131L97 132L96 131M210 131L211 132L210 131M217 131L218 132L217 131z"/>
<path style="fill:#514e4f; stroke:none;" d="M247 131L248 132L247 131z"/>
<path style="fill:#a2a0a1; stroke:none;" d="M474.333 131.667L474.667 132.333L474.333 131.667z"/>
<path style="fill:#727071; stroke:none;" d="M482 131L483 132L482 131M503 131L504 132L503 131z"/>
<path style="fill:#514e4f; stroke:none;" d="M612 131L613 132L612 131z"/>
<path style="fill:#a2a0a1; stroke:none;" d="M634 131L635 132L634 131z"/>
<path style="fill:#727071; stroke:none;" d="M80 132L81 133L80 132M96 132L97 133L96 132z"/>
<path style="fill:#a2a0a1; stroke:none;" d="M209 132L210 133L209 132M216 132L217 133L216 132z"/>
<path style="fill:#727071; stroke:none;" d="M245 132L246 133L245 132M248 132L249 133L248 132M479 132L480 133L479 132z"/>
<path style="fill:#514e4f; stroke:none;" d="M482 132L483 133L482 132M498 132L499 133L498 132z"/>
<path style="fill:#a2a0a1; stroke:none;" d="M499 132L500 133L499 132M611 132L612 133L611 132z"/>
<path style="fill:#727071; stroke:none;" d="M634.333 132.667L634.667 133.333L634.333 132.667z"/>
<path style="fill:#a2a0a1; stroke:none;" d="M65 133L66 134L65 133M69 133L70 134L69 133z"/>
<path style="fill:#514e4f; stroke:none;" d="M93 133L92 135L93 133z"/>
<path style="fill:#a2a0a1; stroke:none;" d="M208 133L209 134L208 133M215 133L216 134L215 133z"/>
<path style="fill:#727071; stroke:none;" d="M228.333 133.667L228.667 134.333L228.333 133.667z"/>
<path style="fill:#a2a0a1; stroke:none;" d="M243.333 133.667L243.667 134.333L243.333 133.667z"/>
<path style="fill:#514e4f; stroke:none;" d="M479.333 133.667L479.667 134.333L479.333 133.667z"/>
<path style="fill:#727071; stroke:none;" d="M498 133L499 134L498 133z"/>
<path style="fill:#ffffff; stroke:none;" d="M499 133C495.461 145.565 499.653 154.577 510 163C510 151.875 506.845 141.38 499 133z"/>
<path style="fill:#514e4f; stroke:none;" d="M500 133L501 134L500 133z"/>
<path style="fill:#a2a0a1; stroke:none;" d="M504 133L505 134L504 133z"/>
<path style="fill:#727071; stroke:none;" d="M611 133L612 134L611 133z"/>
<path style="fill:#a2a0a1; stroke:none;" d="M79 134L80 135L79 134M93 134L94 135L93 134z"/>
<path style="fill:#514e4f; stroke:none;" d="M208 134L209 135L208 134z"/>
<path style="fill:#a2a0a1; stroke:none;" d="M214 134L215 135L214 134z"/>
<path style="fill:#727071; stroke:none;" d="M246 134L247 135L246 134M249 134L250 135L249 134z"/>
<path style="fill:#a2a0a1; stroke:none;" d="M367.333 134.667L367.667 135.333L367.333 134.667M475.333 134.667L475.667 135.333L475.333 134.667M498 134L499 135L498 134M500 134L501 135L500 134z"/>
<path style="fill:#514e4f; stroke:none;" d="M504 134L505 135L504 134z"/>
<path style="fill:#a2a0a1; stroke:none;" d="M635 134L636 135L635 134M64 135L65 136L64 135M68 135L69 136L68 135z"/>
<path style="fill:#727071; stroke:none;" d="M79 135L80 136L79 135z"/>
<path style="fill:#a2a0a1; stroke:none;" d="M92.3333 135.667L92.6667 136.333L92.3333 135.667M97 135L98 136L97 135M207 135L208 136L207 135M213 135L214 136L213 135M228 135L229 136L228 135z"/>
<path style="fill:#514e4f; stroke:none;" d="M242 135L242 140L243 140L242 135z"/>
<path style="fill:#a2a0a1; stroke:none;" d="M250 135L251 136L250 135M481 135L480 138L481 135z"/>
<path style="fill:#727071; stroke:none;" d="M501 135L502 136L501 135z"/>
<path style="fill:#a2a0a1; stroke:none;" d="M505 135L506 136L505 135z"/>
<path style="fill:#727071; stroke:none;" d="M610 135L611 136L610 135z"/>
<path style="fill:#514e4f; stroke:none;" d="M615 135L614 137L615 135M635 135L636 136L635 135z"/>
<path style="fill:#727071; stroke:none;" d="M64 136L65 137L64 136z"/>
<path style="fill:#514e4f; stroke:none;" d="M79 136L80 137L79 136z"/>
<path style="fill:#a2a0a1; stroke:none;" d="M94 136L94 139L95 139L94 136z"/>
<path style="fill:#514e4f; stroke:none;" d="M97 136L98 137L97 136z"/>
<path style="fill:#727071; stroke:none;" d="M228 136L229 137L228 136M247 136L248 137L247 136z"/>
<path style="fill:#a2a0a1; stroke:none;" d="M349 136L349 144L350 144L349 136z"/>
<path style="fill:#727071; stroke:none;" d="M476.333 136.667L476.667 137.333L476.333 136.667z"/>
<path style="fill:#514e4f; stroke:none;" d="M497 136L498 137L497 136z"/>
<path style="fill:#a2a0a1; stroke:none;" d="M615 136L616 139L615 136z"/>
<path style="fill:#514e4f; stroke:none;" d="M64 137L65 138L64 137M67 137L68 138L67 137z"/>
<path style="fill:#a2a0a1; stroke:none;" d="M98 137L99 138L98 137z"/>
<path style="fill:#727071; stroke:none;" d="M206 137L207 138L206 137z"/>
<path style="fill:#a2a0a1; stroke:none;" d="M227.333 137.667L227.667 138.333L227.333 137.667M251 137L252 138L251 137z"/>
<path style="fill:#727071; stroke:none;" d="M497 137L498 138L497 137z"/>
<path style="fill:#a2a0a1; stroke:none;" d="M502 137L503 138L502 137M506 137L507 138L506 137M609 137L610 138L609 137z"/>
<path style="fill:#727071; stroke:none;" d="M636 137L637 138L636 137z"/>
<path style="fill:#a2a0a1; stroke:none;" d="M63.3333 138.667L63.6667 139.333L63.3333 138.667M67.3333 138.667L67.6667 139.333L67.3333 138.667z"/>
<path style="fill:#727071; stroke:none;" d="M91 138L92 139L91 138M98 138L99 139L98 138z"/>
<path style="fill:#a2a0a1; stroke:none;" d="M205 138L206 139L205 138M211 138L212 139L211 138M248 138L249 139L248 138z"/>
<path style="fill:#514e4f; stroke:none;" d="M249 139L250 142L254 141L249 139z"/>
<path style="fill:#a2a0a1; stroke:none;" d="M252 138L253 139L252 138z"/>
<path style="fill:#727071; stroke:none;" d="M480.667 138.333L481.333 138.667L480.667 138.333z"/>
<path style="fill:#a2a0a1; stroke:none;" d="M497 138L498 139L497 138z"/>
<path style="fill:#514e4f; stroke:none;" d="M609 138L610 139L609 138z"/>
<path style="fill:#727071; stroke:none;" d="M613 138L614 139L613 138z"/>
<path style="fill:#a2a0a1; stroke:none;" d="M78 139L79 140L78 139z"/>
<path style="fill:#514e4f; stroke:none;" d="M205 139L206 140L205 139z"/>
<path style="fill:#727071; stroke:none;" d="M210 139L211 140L210 139z"/>
<path style="fill:#514e4f; stroke:none;" d="M227.333 139.667L227.667 140.333L227.333 139.667M480.667 139.333L481.333 139.667L480.667 139.333z"/>
<path style="fill:#a2a0a1; stroke:none;" d="M503 139L504 140L503 139M507 139L508 140L507 139M608 139L609 140L608 139z"/>
<path style="fill:#727071; stroke:none;" d="M615 139L615 143L616 143L615 139M637 139L638 140L637 139z"/>
<path style="fill:#514e4f; stroke:none;" d="M63 140L64 141L63 140M66 140L67 141L66 140M78 140L79 141L78 140z"/>
<path style="fill:#a2a0a1; stroke:none;" d="M91.3333 140.667L91.6667 141.333L91.3333 140.667z"/>
<path style="fill:#514e4f; stroke:none;" d="M95.3333 140.667L95.6667 141.333L95.3333 140.667z"/>
<path style="fill:#a2a0a1; stroke:none;" d="M99 140L100 141L99 140z"/>
<path style="fill:#727071; stroke:none;" d="M204 140L205 141L204 140M209 140L210 141L209 140z"/>
<path style="fill:#a2a0a1; stroke:none;" d="M242 140L243 141L242 140M249 140L250 141L249 140z"/>
<path style="fill:#232021; stroke:none;" d="M250 140L251 141L250 140M252 140C251.903 146.343 269.063 160.248 275 163C270.757 152.881 260.85 146.051 252 140z"/>
<path style="fill:#a2a0a1; stroke:none;" d="M477.333 140.667L477.667 141.333L477.333 140.667z"/>
<path style="fill:#514e4f; stroke:none;" d="M496 140L497 141L496 140M504 140L505 141L504 140M507 140L508 141L507 140M608 140L609 141L608 140z"/>
<path style="fill:#a2a0a1; stroke:none;" d="M612 140L613 141L612 140z"/>
<path style="fill:#514e4f; stroke:none;" d="M631 140L631 143L632 143L631 140z"/>
<path style="fill:#a2a0a1; stroke:none;" d="M632 140L633 141L632 140z"/>
<path style="fill:#727071; stroke:none;" d="M66 141L67 142L66 141z"/>
<path style="fill:#a2a0a1; stroke:none;" d="M203 141L204 142L203 141M226.333 141.667L226.667 142.333L226.333 141.667z"/>
<path style="fill:#727071; stroke:none;" d="M254 141L255 142L254 141M496 141L497 142L496 141z"/>
<path style="fill:#a2a0a1; stroke:none;" d="M504 141L505 142L504 141M508 141L509 142L508 141z"/>
<path style="fill:#514e4f; stroke:none;" d="M611 141L612 142L611 141z"/>
<path style="fill:#727071; stroke:none;" d="M633 141L634 142L633 141z"/>
<path style="fill:#a2a0a1; stroke:none;" d="M638 141L639 142L638 141M77 142L78 143L77 142z"/>
<path style="fill:#514e4f; stroke:none;" d="M90.3333 142.667L90.6667 143.333L90.3333 142.667z"/>
<path style="fill:#a2a0a1; stroke:none;" d="M95 142L96 143L95 142z"/>
<path style="fill:#727071; stroke:none;" d="M100 142L101 143L100 142z"/>
<path style="fill:#514e4f; stroke:none;" d="M203 142L204 143L203 142z"/>
<path style="fill:#a2a0a1; stroke:none;" d="M208 142L209 143L208 142M242 142L243 143L242 142M250 142L251 143L250 142z"/>
<path style="fill:#727071; stroke:none;" d="M255 142L256 143L255 142z"/>
<path style="fill:#514e4f; stroke:none;" d="M366 142L367 143L366 142M478 142L479 143L478 142z"/>
<path style="fill:#a2a0a1; stroke:none;" d="M496 142L497 143L496 142z"/>
<path style="fill:#514e4f; stroke:none;" d="M505 142L506 143L505 142M508 142L509 143L508 142z"/>
<path style="fill:#a2a0a1; stroke:none;" d="M607 142L608 143L607 142M633.333 142.667L633.667 143.333L633.333 142.667M62 143L63 144L62 143z"/>
<path style="fill:#514e4f; stroke:none;" d="M65 143L66 144L65 143z"/>
<path style="fill:#727071; stroke:none;" d="M77 143L78 144L77 143M96 143L97 144L96 143z"/>
<path style="fill:#a2a0a1; stroke:none;" d="M202 143L203 144L202 143z"/>
<path style="fill:#727071; stroke:none;" d="M207 143L208 144L207 143z"/>
<path style="fill:#514e4f; stroke:none;" d="M226 143L227 144L226 143z"/>
<path style="fill:#727071; stroke:none;" d="M251 143L252 144L251 143z"/>
<path style="fill:#514e4f; stroke:none;" d="M256 143L257 144L256 143z"/>
<path style="fill:#727071; stroke:none;" d="M366 143L367 144L366 143M478 143L479 144L478 143z"/>
<path style="fill:#a2a0a1; stroke:none;" d="M505 143L506 144L505 143M509 143L510 144L509 143M610 143L611 144L610 143z"/>
<path style="fill:#514e4f; stroke:none;" d="M615 143L615 150L616 150L615 143z"/>
<path style="fill:#a2a0a1; stroke:none;" d="M631 143L632 144L631 143z"/>
<path style="fill:#727071; stroke:none;" d="M639 143L640 144L639 143M62 144L62 147L63 147L62 144z"/>
<path style="fill:#a2a0a1; stroke:none;" d="M65.3333 144.667L65.6667 145.333L65.3333 144.667z"/>
<path style="fill:#727071; stroke:none;" d="M90 144L91 145L90 144M101 144L102 145L101 144z"/>
<path style="fill:#514e4f; stroke:none;" d="M206 144L207 145L206 144z"/>
<path style="fill:#727071; stroke:none;" d="M241.333 144.667L241.667 145.333L241.333 144.667M252 144L253 145L252 144z"/>
<path style="fill:#514e4f; stroke:none;" d="M257 144L258 145L257 144z"/>
<path style="fill:#a2a0a1; stroke:none;" d="M258 144L259 145L258 144z"/>
<path style="fill:#727071; stroke:none;" d="M349 144L349 147L350 147L349 144z"/>
<path style="fill:#a2a0a1; stroke:none;" d="M366 144L366 147L367 147L366 144z"/>
<path style="fill:#514e4f; stroke:none;" d="M495.333 144.667L495.667 145.333L495.333 144.667M506 144L507 145L506 144M509 144L510 145L509 144z"/>
<path style="fill:#a2a0a1; stroke:none;" d="M606 144L607 145L606 144z"/>
<path style="fill:#727071; stroke:none;" d="M631 144L632 145L631 144z"/>
<path style="fill:#a2a0a1; stroke:none;" d="M640 144L641 145L640 144M97 145L98 146L97 145z"/>
<path style="fill:#727071; stroke:none;" d="M201 145L202 146L201 145M225 145L226 146L225 145z"/>
<path style="fill:#a2a0a1; stroke:none;" d="M253 145L254 146L253 145z"/>
<path style="fill:#727071; stroke:none;" d="M259 145L260 146L259 145z"/>
<path style="fill:#a2a0a1; stroke:none;" d="M506 145L507 146L506 145M510 145L511 146L510 145M609 145L610 146L609 145M631 145L632 146L631 145z"/>
<path style="fill:#727071; stroke:none;" d="M634 145L635 146L634 145z"/>
<path style="fill:#514e4f; stroke:none;" d="M640 145L641 146L640 145z"/>
<path style="fill:#a2a0a1; stroke:none;" d="M76 146L77 147L76 146z"/>
<path style="fill:#727071; stroke:none;" d="M98 146L99 147L98 146M102 146L103 147L102 146z"/>
<path style="fill:#a2a0a1; stroke:none;" d="M200 146L201 147L200 146M205 146L206 147L205 146M241.333 146.667L241.667 147.333L241.333 146.667z"/>
<path style="fill:#514e4f; stroke:none;" d="M255 146L256 147L255 146z"/>
<path style="fill:#a2a0a1; stroke:none;" d="M260 146L261 147L260 146M479.333 146.667L479.667 147.333L479.333 146.667z"/>
<path style="fill:#727071; stroke:none;" d="M496 146L497 147L496 146M507 146L508 147L507 146z"/>
<path style="fill:#514e4f; stroke:none;" d="M510 146L511 147L510 146z"/>
<path style="fill:#a2a0a1; stroke:none;" d="M605 146L606 147L605 146z"/>
<path style="fill:#514e4f; stroke:none;" d="M608 146L609 147L608 146z"/>
<path style="fill:#a2a0a1; stroke:none;" d="M634 146L635 147L634 146M641 146L642 147L641 146M61 147L62 148L61 147z"/>
<path style="fill:#727071; stroke:none;" d="M76 147L77 148L76 147z"/>
<path style="fill:#514e4f; stroke:none;" d="M89 147L90 148L89 147z"/>
<path style="fill:#a2a0a1; stroke:none;" d="M103 147L104 148L103 147z"/>
<path style="fill:#727071; stroke:none;" d="M204 147L205 148L204 147z"/>
<path style="fill:#a2a0a1; stroke:none;" d="M224 147L225 148L224 147M256 147L257 148L256 147z"/>
<path style="fill:#514e4f; stroke:none;" d="M261 147L262 148L261 147z"/>
<path style="fill:#a2a0a1; stroke:none;" d="M349 147L350 148L349 147M497 147L498 148L497 147M511 147L512 148L511 147M608 147L609 148L608 147z"/>
<path style="fill:#514e4f; stroke:none;" d="M630 147L631 148L630 147M635 147L636 148L635 147z"/>
<path style="fill:#a2a0a1; stroke:none;" d="M64.3333 148.667L64.6667 149.333L64.3333 148.667z"/>
<path style="fill:#514e4f; stroke:none;" d="M76 148L77 149L76 148z"/>
<path style="fill:#a2a0a1; stroke:none;" d="M89 148L89 152L90 152L89 148M99 148L100 149L99 148M199 148L200 149L199 148z"/>
<path style="fill:#514e4f; stroke:none;" d="M203 148L204 149L203 148M224 148L225 149L224 148z"/>
<path style="fill:#a2a0a1; stroke:none;" d="M257 148L258 149L257 148z"/>
<path style="fill:#514e4f; stroke:none;" d="M258 148L259 149L258 148z"/>
<path style="fill:#727071; stroke:none;" d="M350 148L351 149L350 148z"/>
<path style="fill:#514e4f; stroke:none;" d="M480 148L481 149L480 148z"/>
<path style="fill:#a2a0a1; stroke:none;" d="M498 148L499 149L498 148z"/>
<path style="fill:#727071; stroke:none;" d="M508 148L509 149L508 148z"/>
<path style="fill:#514e4f; stroke:none;" d="M511 148L512 149L511 148z"/>
<path style="fill:#a2a0a1; stroke:none;" d="M604 148L605 149L604 148z"/>
<path style="fill:#514e4f; stroke:none;" d="M607 148L608 149L607 148z"/>
<path style="fill:#727071; stroke:none;" d="M635 148L636 149L635 148M642 148L643 149L642 148z"/>
<path style="fill:#a2a0a1; stroke:none;" d="M61 149L62 150L61 149M75.3333 149.667L75.6667 150.333L75.3333 149.667M100 149L101 150L100 149z"/>
<path style="fill:#727071; stroke:none;" d="M104 149L105 150L104 149z"/>
<path style="fill:#a2a0a1; stroke:none;" d="M223.333 149.667L223.667 150.333L223.333 149.667z"/>
<path style="fill:#514e4f; stroke:none;" d="M259 149L260 150L259 149z"/>
<path style="fill:#a2a0a1; stroke:none;" d="M264 149L265 150L264 149z"/>
<path style="fill:#727071; stroke:none;" d="M367.333 149.667L367.667 150.333L367.333 149.667M480 149L481 150L480 149z"/>
<path style="fill:#514e4f; stroke:none;" d="M487 149L488 150L487 149z"/>
<path style="fill:#727071; stroke:none;" d="M488 149L489 150L488 149z"/>
<path style="fill:#514e4f; stroke:none;" d="M498 149L499 150L498 149z"/>
<path style="fill:#a2a0a1; stroke:none;" d="M512 149L513 150L512 149z"/>
<path style="fill:#514e4f; stroke:none;" d="M604 149L605 150L604 149z"/>
<path style="fill:#a2a0a1; stroke:none;" d="M607 149L608 150L607 149z"/>
<path style="fill:#514e4f; stroke:none;" d="M630 149L631 150L630 149M636 149L637 150L636 149z"/>
<path style="fill:#a2a0a1; stroke:none;" d="M643 149L644 150L643 149z"/>
<path style="fill:#514e4f; stroke:none;" d="M61.3333 150.667L61.6667 151.333L61.3333 150.667M63 150L64 151L63 150z"/>
<path style="fill:#727071; stroke:none;" d="M101 150L102 151L101 150z"/>
<path style="fill:#514e4f; stroke:none;" d="M198 150L199 151L198 150M240 150L241 151L240 150z"/>
<path style="fill:#a2a0a1; stroke:none;" d="M260 150L261 151L260 150z"/>
<path style="fill:#727071; stroke:none;" d="M265 150L266 151L265 150M351 150L352 151L351 150z"/>
<path style="fill:#514e4f; stroke:none;" d="M480 150L481 151L480 150z"/>
<path style="fill:#a2a0a1; stroke:none;" d="M487 150L488 151L487 150M489 150L490 151L489 150z"/>
<path style="fill:#514e4f; stroke:none;" d="M490 150L491 151L490 150z"/>
<path style="fill:#727071; stroke:none;" d="M499 150L500 151L499 150z"/>
<path style="fill:#a2a0a1; stroke:none;" d="M509 150L510 151L509 150z"/>
<path style="fill:#514e4f; stroke:none;" d="M512 150L513 151L512 150M606 150L607 151L606 150z"/>
<path style="fill:#a2a0a1; stroke:none;" d="M630.333 150.667L630.667 151.333L630.333 150.667z"/>
<path style="fill:#514e4f; stroke:none;" d="M637 150L638 151L637 150z"/>
<path style="fill:#727071; stroke:none;" d="M63 151L64 152L63 151z"/>
<path style="fill:#514e4f; stroke:none;" d="M75 151L76 152L75 151z"/>
<path style="fill:#727071; stroke:none;" d="M102 151L103 152L102 151z"/>
<path style="fill:#a2a0a1; stroke:none;" d="M105.333 151.667L105.667 152.333L105.333 151.667M195 151L195 152L198 152L195 151z"/>
<path style="fill:#514e4f; stroke:none;" d="M201 151L202 152L201 151M223 151L224 152L223 151z"/>
<path style="fill:#a2a0a1; stroke:none;" d="M240.333 151.667L240.667 152.333L240.333 151.667M261 151L262 152L261 151z"/>
<path style="fill:#727071; stroke:none;" d="M266 151L267 152L266 151z"/>
<path style="fill:#a2a0a1; stroke:none;" d="M479 151L480 152L479 151z"/>
<path style="fill:#727071; stroke:none;" d="M486 151L487 152L486 151z"/>
<path style="fill:#514e4f; stroke:none;" d="M491 151L492 152L491 151z"/>
<path style="fill:#a2a0a1; stroke:none;" d="M500 151L501 152L500 151M513 151L514 152L513 151z"/>
<path style="fill:#514e4f; stroke:none;" d="M603 151L604 152L603 151z"/>
<path style="fill:#a2a0a1; stroke:none;" d="M606 151L607 152L606 151M614 151L614 157L615 157L614 151z"/>
<path style="fill:#514e4f; stroke:none;" d="M638 151L639 152L638 151M644 151L645 152L644 151z"/>
<path style="fill:#a2a0a1; stroke:none;" d="M60 152L59 154L60 152M63 152L64 153L63 152M103 152L104 153L103 152z"/>
<path style="fill:#514e4f; stroke:none;" d="M104 152L105 153L104 152z"/>
<path style="fill:#727071; stroke:none;" d="M193 152L194 153L193 152z"/>
<path style="fill:#514e4f; stroke:none;" d="M200 152L201 153L200 152z"/>
<path style="fill:#a2a0a1; stroke:none;" d="M222 152L223 153L222 152z"/>
<path style="fill:#514e4f; stroke:none;" d="M263 152L264 153L263 152M267 152L268 153L267 152z"/>
<path style="fill:#a2a0a1; stroke:none;" d="M268 152L269 153L268 152z"/>
<path style="fill:#514e4f; stroke:none;" d="M352 152L353 153L352 152z"/>
<path style="fill:#a2a0a1; stroke:none;" d="M368 152L369 153L368 152z"/>
<path style="fill:#514e4f; stroke:none;" d="M479 152L480 153L479 152z"/>
<path style="fill:#727071; stroke:none;" d="M492 152L493 153L492 152z"/>
<path style="fill:#a2a0a1; stroke:none;" d="M510 152L510 156L511 156L510 152z"/>
<path style="fill:#727071; stroke:none;" d="M513 152L514 153L513 152z"/>
<path style="fill:#a2a0a1; stroke:none;" d="M602 152L603 153L602 152z"/>
<path style="fill:#727071; stroke:none;" d="M605 152L606 153L605 152M639 152L640 153L639 152z"/>
<path style="fill:#a2a0a1; stroke:none;" d="M645 152L646 153L645 152z"/>
<path style="fill:#514e4f; stroke:none;" d="M60 153L61 154L60 153M88 153L88 160L89 160L88 153z"/>
<path style="fill:#a2a0a1; stroke:none;" d="M191 153L192 154L191 153M200 153L201 154L200 153z"/>
<path style="fill:#514e4f; stroke:none;" d="M239 153L240 154L239 153z"/>
<path style="fill:#727071; stroke:none;" d="M264 153L265 154L264 153z"/>
<path style="fill:#a2a0a1; stroke:none;" d="M269 153L270 154L269 153z"/>
<path style="fill:#514e4f; stroke:none;" d="M368 153L369 154L368 153z"/>
<path style="fill:#a2a0a1; stroke:none;" d="M478 153L479 154L478 153M485 153L486 154L485 153M493 153L494 154L493 153z"/>
<path style="fill:#514e4f; stroke:none;" d="M501 153L502 154L501 153z"/>
<path style="fill:#a2a0a1; stroke:none;" d="M514 153L515 154L514 153z"/>
<path style="fill:#514e4f; stroke:none;" d="M602 153L603 154L602 153z"/>
<path style="fill:#a2a0a1; stroke:none;" d="M605 153L606 154L605 153z"/>
<path style="fill:#727071; stroke:none;" d="M640 153L641 154L640 153z"/>
<path style="fill:#a2a0a1; stroke:none;" d="M646 153L647 154L646 153z"/>
<path style="fill:#727071; stroke:none;" d="M58 154L59 155L58 154z"/>
<path style="fill:#514e4f; stroke:none;" d="M62 154L63 155L62 154z"/>
<path style="fill:#a2a0a1; stroke:none;" d="M74 154L75 155L74 154M189 154L190 155L189 154z"/>
<path style="fill:#514e4f; stroke:none;" d="M190 154L191 155L190 154z"/>
<path style="fill:#a2a0a1; stroke:none;" d="M199 154L200 155L199 154z"/>
<path style="fill:#727071; stroke:none;" d="M222 154L223 155L222 154M239 154L240 155L239 154z"/>
<path style="fill:#a2a0a1; stroke:none;" d="M265 154L266 155L265 154M270 154L271 155L270 154z"/>
<path style="fill:#514e4f; stroke:none;" d="M365 154L366 155L365 154z"/>
<path style="fill:#727071; stroke:none;" d="M478 154L479 155L478 154M485.333 154.667L485.667 155.333L485.333 154.667z"/>
<path style="fill:#a2a0a1; stroke:none;" d="M494 154L495 155L494 154z"/>
<path style="fill:#727071; stroke:none;" d="M502 154L503 155L502 154M514 154L515 155L514 154z"/>
<path style="fill:#a2a0a1; stroke:none;" d="M601 154L602 155L601 154z"/>
<path style="fill:#727071; stroke:none;" d="M604 154L605 155L604 154z"/>
<path style="fill:#a2a0a1; stroke:none;" d="M641 154L642 155L641 154z"/>
<path style="fill:#514e4f; stroke:none;" d="M58 155L59 156L58 155z"/>
<path style="fill:#a2a0a1; stroke:none;" d="M62 155L63 156L62 155z"/>
<path style="fill:#727071; stroke:none;" d="M74.3333 155.667L74.6667 156.333L74.3333 155.667z"/>
<path style="fill:#a2a0a1; stroke:none;" d="M187 155L188 156L187 155z"/>
<path style="fill:#514e4f; stroke:none;" d="M188 155L189 156L188 155M196 155L197 156L196 155z"/>
<path style="fill:#a2a0a1; stroke:none;" d="M197 155L198 156L197 155M239.333 155.667L239.667 156.333L239.333 155.667M266 155L267 156L266 155M271 155L272 156L271 155M365.333 155.667L365.667 156.333L365.333 155.667M369.333 155.667L369.667 156.333L369.333 155.667M495 155L496 156L495 155M503 155L504 156L503 155M514 155L515 156L514 155M604 155L605 156L604 155M642 155L643 156L642 155z"/>
<path style="fill:#727071; stroke:none;" d="M647 155L648 156L647 155z"/>
<path style="fill:#a2a0a1; stroke:none;" d="M56 156L57 157L56 156z"/>
<path style="fill:#514e4f; stroke:none;" d="M57 156L58 157L57 156z"/>
<path style="fill:#727071; stroke:none;" d="M186 156L187 157L186 156z"/>
<path style="fill:#514e4f; stroke:none;" d="M189 156L189 157L192 157L189 156z"/>
<path style="fill:#727071; stroke:none;" d="M192 156L193 157L192 156z"/>
<path style="fill:#a2a0a1; stroke:none;" d="M193.667 156.333L194.333 156.667L193.667 156.333M267 156L268 157L267 156z"/>
<path style="fill:#727071; stroke:none;" d="M366 156L367 157L366 156M477 156L478 157L477 156z"/>
<path style="fill:#514e4f; stroke:none;" d="M485 156L486 157L485 156z"/>
<path style="fill:#a2a0a1; stroke:none;" d="M496 156L497 157L496 156z"/>
<path style="fill:#514e4f; stroke:none;" d="M497 156L498 157L497 156z"/>
<path style="fill:#727071; stroke:none;" d="M510 156L511 157L510 156z"/>
<path style="fill:#a2a0a1; stroke:none;" d="M600 156L601 157L600 156z"/>
<path style="fill:#727071; stroke:none;" d="M603 156L604 157L603 156M629 156L630 157L629 156z"/>
<path style="fill:#a2a0a1; stroke:none;" d="M643 156L644 157L643 156M648 156L649 157L648 156z"/>
<path style="fill:#514e4f; stroke:none;" d="M55 157L56 158L55 157z"/>
<path style="fill:#727071; stroke:none;" d="M61 157L62 158L61 157z"/>
<path style="fill:#a2a0a1; stroke:none;" d="M74 157L75 158L74 157M186 157L186 158L189 158L186 157M268 157L269 158L268 157z"/>
<path style="fill:#727071; stroke:none;" d="M272 157L273 158L272 157M365 157L366 158L365 157z"/>
<path style="fill:#514e4f; stroke:none;" d="M369 157L370 158L369 157z"/>
<path style="fill:#a2a0a1; stroke:none;" d="M486 157L486 161L487 161L486 157z"/>
<path style="fill:#514e4f; stroke:none;" d="M498 157L499 158L498 157M504 157L505 158L504 157M510 157L511 158L510 157M513 157L514 158L513 157z"/>
<path style="fill:#727071; stroke:none;" d="M614 157L615 158L614 157z"/>
<path style="fill:#a2a0a1; stroke:none;" d="M629 157L630 158L629 157M644 157L645 158L644 157z"/>
<path style="fill:#727071; stroke:none;" d="M54 158L55 159L54 158z"/>
<path style="fill:#514e4f; stroke:none;" d="M59 158L60 159L59 158z"/>
<path style="fill:#a2a0a1; stroke:none;" d="M60 158L61 159L60 158z"/>
<path style="fill:#727071; stroke:none;" d="M238 158L239 159L238 158z"/>
<path style="fill:#514e4f; stroke:none;" d="M358.333 158.667L358.667 159.333L358.333 158.667z"/>
<path style="fill:#727071; stroke:none;" d="M359 158L360 159L359 158z"/>
<path style="fill:#514e4f; stroke:none;" d="M365 158L366 159L365 158z"/>
<path style="fill:#727071; stroke:none;" d="M367 158L368 159L367 158M476 158L477 159L476 158z"/>
<path style="fill:#514e4f; stroke:none;" d="M483 158L484 159L483 158M499 158L500 159L499 158z"/>
<path style="fill:#a2a0a1; stroke:none;" d="M505 158L506 159L505 158M513.333 158.667L513.667 159.333L513.333 158.667z"/>
<path style="fill:#727071; stroke:none;" d="M599 158L600 159L599 158M602 158L603 159L602 158M629.333 158.667L629.667 159.333L629.333 158.667z"/>
<path style="fill:#a2a0a1; stroke:none;" d="M645 158L646 159L645 158z"/>
<path style="fill:#514e4f; stroke:none;" d="M649 158L650 159L649 158z"/>
<path style="fill:#727071; stroke:none;" d="M53 159L54 160L53 159M58 159L59 160L58 159z"/>
<path style="fill:#514e4f; stroke:none;" d="M75 159L76 160L75 159z"/>
<path style="fill:#a2a0a1; stroke:none;" d="M222 159L223 160L222 159M238 159L239 160L238 159z"/>
<path style="fill:#514e4f; stroke:none;" d="M269 159L270 160L269 159M273 159L274 160L273 159z"/>
<path style="fill:#a2a0a1; stroke:none;" d="M351.333 159.667L351.667 160.333L351.333 159.667M359 159L360 160L359 159z"/>
<path style="fill:#514e4f; stroke:none;" d="M368 159L369 160L368 159z"/>
<path style="fill:#a2a0a1; stroke:none;" d="M370.333 159.667L370.667 160.333L370.333 159.667z"/>
<path style="fill:#514e4f; stroke:none;" d="M476 159L477 160L476 159z"/>
<path style="fill:#a2a0a1; stroke:none;" d="M482 159L483 160L482 159M506 159L507 160L506 159M598 159L599 160L598 159M646 159L647 160L646 159M650 159L651 160L650 159z"/>
<path style="fill:#514e4f; stroke:none;" d="M56 160L57 161L56 160z"/>
<path style="fill:#a2a0a1; stroke:none;" d="M57 160L58 161L57 160M75.3333 160.667L75.6667 161.333L75.3333 160.667M89.3333 160.667L89.6667 161.333L89.3333 160.667z"/>
<path style="fill:#514e4f; stroke:none;" d="M237 160L238 161L237 160z"/>
<path style="fill:#a2a0a1; stroke:none;" d="M269 160L270 161L269 160M274.333 160.667L274.667 161.333L274.333 160.667z"/>
<path style="fill:#727071; stroke:none;" d="M358 160L359 161L358 160z"/>
<path style="fill:#ffffff; stroke:none;" d="M359 160L357 175L363 173L359 160z"/>
<path style="fill:#514e4f; stroke:none;" d="M360.333 160.667L360.667 161.333L360.333 160.667z"/>
<path style="fill:#a2a0a1; stroke:none;" d="M366.333 160.667L366.667 161.333L366.333 160.667z"/>
<path style="fill:#514e4f; stroke:none;" d="M369 160L370 161L369 160z"/>
<path style="fill:#a2a0a1; stroke:none;" d="M475 160L476 161L475 160z"/>
<path style="fill:#514e4f; stroke:none;" d="M484 160L485 161L484 160z"/>
<path style="fill:#a2a0a1; stroke:none;" d="M500 160L501 161L500 160z"/>
<path style="fill:#514e4f; stroke:none;" d="M512 160L513 161L512 160M598 160L599 161L598 160z"/>
<path style="fill:#a2a0a1; stroke:none;" d="M601 160L602 161L601 160M647 160L648 161L647 160z"/>
<path style="fill:#514e4f; stroke:none;" d="M52 161L53 162L52 161z"/>
<path style="fill:#727071; stroke:none;" d="M55 161L56 162L55 161M223 161L224 162L223 161M237 161L238 162L237 161z"/>
<path style="fill:#a2a0a1; stroke:none;" d="M270 161L271 162L270 161z"/>
<path style="fill:#514e4f; stroke:none;" d="M271 161L272 162L271 161z"/>
<path style="fill:#727071; stroke:none;" d="M351 161L351 168L352 168L351 161z"/>
<path style="fill:#a2a0a1; stroke:none;" d="M358.333 161.667L358.667 162.333L358.333 161.667z"/>
<path style="fill:#514e4f; stroke:none;" d="M475 161L476 162L475 161z"/>
<path style="fill:#a2a0a1; stroke:none;" d="M481 161L482 162L481 161M484.667 161.333L485.333 161.667L484.667 161.333M501 161L502 162L501 161z"/>
<path style="fill:#514e4f; stroke:none;" d="M507 161L508 162L507 161z"/>
<path style="fill:#727071; stroke:none;" d="M512.333 161.667L512.667 162.333L512.333 161.667z"/>
<path style="fill:#a2a0a1; stroke:none;" d="M597 161L598 162L597 161M613.333 161.667L613.667 162.333L613.333 161.667z"/>
<path style="fill:#727071; stroke:none;" d="M630 161L631 162L630 161z"/>
<path style="fill:#a2a0a1; stroke:none;" d="M648 161L649 162L648 161z"/>
<path style="fill:#514e4f; stroke:none;" d="M651 161L652 162L651 161M51.3333 162.667L51.6667 163.333L51.3333 162.667M53 162L54 163L53 162z"/>
<path style="fill:#a2a0a1; stroke:none;" d="M54 162L55 163L54 162z"/>
<path style="fill:#514e4f; stroke:none;" d="M75 162L76 163L75 162M89 162L90 163L89 162z"/>
<path style="fill:#a2a0a1; stroke:none;" d="M237 162L238 163L237 162M272 162L273 163L272 162z"/>
<path style="fill:#514e4f; stroke:none;" d="M273 162L274 163L273 162z"/>
<path style="fill:#727071; stroke:none;" d="M360 162L361 163L360 162z"/>
<path style="fill:#514e4f; stroke:none;" d="M366 162L367 163L366 162z"/>
<path style="fill:#a2a0a1; stroke:none;" d="M474 162L475 163L474 162z"/>
<path style="fill:#514e4f; stroke:none;" d="M480 162L481 163L480 162z"/>
<path style="fill:#727071; stroke:none;" d="M502 162L503 163L502 162z"/>
<path style="fill:#a2a0a1; stroke:none;" d="M508 162L509 163L508 162z"/>
<path style="fill:#514e4f; stroke:none;" d="M510 162L511 163L510 162z"/>
<path style="fill:#a2a0a1; stroke:none;" d="M600 162L601 163L600 162M649 162L650 163L649 162z"/>
<path style="fill:#727071; stroke:none;" d="M652 162L653 163L652 162z"/>
<path style="fill:#a2a0a1; stroke:none;" d="M52 163L53 164L52 163M223 163L224 164L223 163z"/>
<path style="fill:#727071; stroke:none;" d="M237 163L238 164L237 163z"/>
<path style="fill:#a2a0a1; stroke:none;" d="M274 163L275 164L274 163M360 163L361 164L360 163z"/>
<path style="fill:#514e4f; stroke:none;" d="M474 163L475 164L474 163z"/>
<path style="fill:#727071; stroke:none;" d="M480 163L481 164L480 163z"/>
<path style="fill:#514e4f; stroke:none;" d="M503 163L504 164L503 163z"/>
<path style="fill:#a2a0a1; stroke:none;" d="M509 163L510 164L509 163z"/>
<path style="fill:#727071; stroke:none;" d="M510 163L511 164L510 163z"/>
<path style="fill:#a2a0a1; stroke:none;" d="M512 163L513 164L512 163z"/>
<path style="fill:#727071; stroke:none;" d="M613 163L614 164L613 163z"/>
<path style="fill:#a2a0a1; stroke:none;" d="M631 163L632 164L631 163M650 163L651 164L650 163M653 163L654 164L653 163M74 164L75 165L74 164M81.6667 164.333L82.3333 164.667L81.6667 164.333z"/>
<path style="fill:#727071; stroke:none;" d="M90 164L91 165L90 164z"/>
<path style="fill:#514e4f; stroke:none;" d="M237 164L238 165L237 164M357 164L358 165L357 164z"/>
<path style="fill:#727071; stroke:none;" d="M504 164L505 165L504 164z"/>
<path style="fill:#a2a0a1; stroke:none;" d="M599 164L600 165L599 164z"/>
<path style="fill:#514e4f; stroke:none;" d="M613 164L614 165L613 164M631 164L632 165L631 164z"/>
<path style="fill:#727071; stroke:none;" d="M74.3333 165.667L74.6667 166.333L74.3333 165.667z"/>
<path style="fill:#a2a0a1; stroke:none;" d="M83 165L84 166L83 165z"/>
<path style="fill:#514e4f; stroke:none;" d="M90 165L91 166L90 165z"/>
<path style="fill:#a2a0a1; stroke:none;" d="M222 165L223 166L222 165z"/>
<path style="fill:#727071; stroke:none;" d="M238 165L239 166L238 165M357 165L358 166L357 165z"/>
<path style="fill:#514e4f; stroke:none;" d="M361 165L362 166L361 165z"/>
<path style="fill:#727071; stroke:none;" d="M367.333 165.667L367.667 166.333L367.333 165.667M473 165L474 166L473 165M479 165L480 166L479 165M505 165L506 166L505 165M511 165L512 166L511 165z"/>
<path style="fill:#514e4f; stroke:none;" d="M594 165L595 166L594 165z"/>
<path style="fill:#a2a0a1; stroke:none;" d="M651 165L652 166L651 165z"/>
<path style="fill:#514e4f; stroke:none;" d="M654 165L655 166L654 165z"/>
<path style="fill:#a2a0a1; stroke:none;" d="M80 166L81 167L80 166M84 166L85 167L84 166M91 166L92 167L91 166z"/>
<path style="fill:#514e4f; stroke:none;" d="M230 166L231 167L230 166M239 166L240 167L239 166z"/>
<path style="fill:#a2a0a1; stroke:none;" d="M357 166L357 169L358 169L357 166z"/>
<path style="fill:#727071; stroke:none;" d="M361 166L362 167L361 166z"/>
<path style="fill:#514e4f; stroke:none;" d="M506 166L507 167L506 166z"/>
<path style="fill:#a2a0a1; stroke:none;" d="M511 166L512 167L511 166M593 166L594 167L593 166M598 166L599 167L598 166z"/>
<path style="fill:#727071; stroke:none;" d="M632 166L633 167L632 166z"/>
<path style="fill:#a2a0a1; stroke:none;" d="M655 166L656 167L655 166M73.3333 167.667L73.6667 168.333L73.3333 167.667z"/>
<path style="fill:#514e4f; stroke:none;" d="M79 167L80 168L79 167z"/>
<path style="fill:#a2a0a1; stroke:none;" d="M85 167L86 168L85 167z"/>
<path style="fill:#514e4f; stroke:none;" d="M91 167L92 168L91 167M221 167L222 168L221 167z"/>
<path style="fill:#a2a0a1; stroke:none;" d="M229 167L230 168L229 167M231 167L232 168L231 167z"/>
<path style="fill:#514e4f; stroke:none;" d="M240 167L241 168L240 167z"/>
<path style="fill:#a2a0a1; stroke:none;" d="M361.333 167.667L361.667 168.333L361.333 167.667z"/>
<path style="fill:#514e4f; stroke:none;" d="M367 167L368 168L367 167z"/>
<path style="fill:#a2a0a1; stroke:none;" d="M472 167L473 168L472 167z"/>
<path style="fill:#514e4f; stroke:none;" d="M478 167L479 168L478 167z"/>
<path style="fill:#a2a0a1; stroke:none;" d="M506 167L507 168L506 167z"/>
<path style="fill:#514e4f; stroke:none;" d="M593 167L594 168L593 167z"/>
<path style="fill:#a2a0a1; stroke:none;" d="M612 167L613 168L612 167z"/>
<path style="fill:#514e4f; stroke:none;" d="M652 167L653 168L652 167z"/>
<path style="fill:#a2a0a1; stroke:none;" d="M79 168L80 169L79 168z"/>
<path style="fill:#727071; stroke:none;" d="M86 168L87 169L86 168z"/>
<path style="fill:#a2a0a1; stroke:none;" d="M92 168L93 169L92 168z"/>
<path style="fill:#514e4f; stroke:none;" d="M228 168L229 169L228 168z"/>
<path style="fill:#a2a0a1; stroke:none;" d="M232 168L233 169L232 168z"/>
<path style="fill:#727071; stroke:none;" d="M241 168L242 169L241 168z"/>
<path style="fill:#514e4f; stroke:none;" d="M351 168L352 169L351 168z"/>
<path style="fill:#a2a0a1; stroke:none;" d="M368 168L368 171L369 171L368 168M478 168L479 169L478 168z"/>
<path style="fill:#514e4f; stroke:none;" d="M506 168L507 169L506 168M510 168L511 169L510 168z"/>
<path style="fill:#727071; stroke:none;" d="M593 168L594 169L593 168z"/>
<path style="fill:#a2a0a1; stroke:none;" d="M597 168L598 169L597 168M633 168L634 169L633 168M652 168L653 169L652 168M656.333 168.667L656.667 169.333L656.333 168.667z"/>
<path style="fill:#514e4f; stroke:none;" d="M73 169L74 170L73 169M78 169L79 170L78 169M92 169L93 170L92 169z"/>
<path style="fill:#727071; stroke:none;" d="M220 169L221 170L220 169z"/>
<path style="fill:#514e4f; stroke:none;" d="M227 169L228 170L227 169z"/>
<path style="fill:#a2a0a1; stroke:none;" d="M234 169L235 170L234 169z"/>
<path style="fill:#727071; stroke:none;" d="M242 169L243 170L242 169z"/>
<path style="fill:#514e4f; stroke:none;" d="M356 169L357 170L356 169z"/>
<path style="fill:#a2a0a1; stroke:none;" d="M471 169L472 170L471 169M505 169L506 170L505 169M510 169L511 170L510 169M593 169L594 170L593 169z"/>
<path style="fill:#514e4f; stroke:none;" d="M595 169L596 170L595 169z"/>
<path style="fill:#a2a0a1; stroke:none;" d="M596 169L597 170L596 169M611 169L612 170L611 169z"/>
<path style="fill:#514e4f; stroke:none;" d="M621 169L622 170L621 169z"/>
<path style="fill:#a2a0a1; stroke:none;" d="M622 169L623 170L622 169z"/>
<path style="fill:#514e4f; stroke:none;" d="M653 169L654 170L653 169z"/>
<path style="fill:#a2a0a1; stroke:none;" d="M78 170L79 171L78 170z"/>
<path style="fill:#514e4f; stroke:none;" d="M88 170L89 171L88 170z"/>
<path style="fill:#a2a0a1; stroke:none;" d="M219.333 170.667L219.667 171.333L219.333 170.667M235 170L236 171L235 170z"/>
<path style="fill:#514e4f; stroke:none;" d="M236 170L237 171L236 170z"/>
<path style="fill:#727071; stroke:none;" d="M243 170L244 171L243 170M356.333 170.667L356.667 171.333L356.333 170.667z"/>
<path style="fill:#514e4f; stroke:none;" d="M362 170L363 171L362 170M471 170L472 171L471 170z"/>
<path style="fill:#a2a0a1; stroke:none;" d="M477 170L478 171L477 170z"/>
<path style="fill:#514e4f; stroke:none;" d="M509 170L510 171L509 170z"/>
<path style="fill:#a2a0a1; stroke:none;" d="M594 170L595 171L594 170z"/>
<path style="fill:#514e4f; stroke:none;" d="M611 170L612 171L611 170z"/>
<path style="fill:#a2a0a1; stroke:none;" d="M621 170L622 171L621 170M623 170L624 171L623 170M634 170L635 171L634 170M653 170L654 171L653 170z"/>
<path style="fill:#727071; stroke:none;" d="M656 170L657 171L656 170z"/>
<path style="fill:#a2a0a1; stroke:none;" d="M72 171L73 172L72 171z"/>
<path style="fill:#514e4f; stroke:none;" d="M77 171L78 172L77 171z"/>
<path style="fill:#727071; stroke:none;" d="M93 171L94 172L93 171z"/>
<path style="fill:#a2a0a1; stroke:none;" d="M226 171L227 172L226 171z"/>
<path style="fill:#727071; stroke:none;" d="M237 171L238 172L237 171z"/>
<path style="fill:#514e4f; stroke:none;" d="M244 171L245 172L244 171z"/>
<path style="fill:#a2a0a1; stroke:none;" d="M350 171L350 174L351 174L350 171M362 171L363 172L362 171z"/>
<path style="fill:#514e4f; stroke:none;" d="M368 171L369 172L368 171z"/>
<path style="fill:#a2a0a1; stroke:none;" d="M470 171L471 172L470 171M509 171L510 172L509 171M610 171L611 172L610 171z"/>
<path style="fill:#727071; stroke:none;" d="M620 171L621 172L620 171z"/>
<path style="fill:#a2a0a1; stroke:none;" d="M624 171L625 172L624 171z"/>
<path style="fill:#727071; stroke:none;" d="M634 171L635 172L634 171z"/>
<path style="fill:#a2a0a1; stroke:none;" d="M657.333 171.667L657.667 172.333L657.333 171.667M77 172L78 173L77 172M89 172L90 173L89 172M94 172L95 173L94 172M225 172L226 173L225 172M238 172L239 173L238 172z"/>
<path style="fill:#727071; stroke:none;" d="M245 172L246 173L245 172z"/>
<path style="fill:#a2a0a1; stroke:none;" d="M356 172L356 175L357 175L356 172z"/>
<path style="fill:#727071; stroke:none;" d="M363 172L364 173L363 172z"/>
<path style="fill:#514e4f; stroke:none;" d="M470 172L471 173L470 172z"/>
<path style="fill:#a2a0a1; stroke:none;" d="M476 172L477 173L476 172z"/>
<path style="fill:#514e4f; stroke:none;" d="M503 172L504 173L503 172z"/>
<path style="fill:#a2a0a1; stroke:none;" d="M508 172L509 173L508 172z"/>
<path style="fill:#514e4f; stroke:none;" d="M610 172L611 173L610 172z"/>
<path style="fill:#727071; stroke:none;" d="M625 172L626 173L625 172M654 172L655 173L654 172z"/>
<path style="fill:#514e4f; stroke:none;" d="M76 173L77 174L76 173z"/>
<path style="fill:#a2a0a1; stroke:none;" d="M90 173L91 174L90 173z"/>
<path style="fill:#514e4f; stroke:none;" d="M94 173L95 174L94 173z"/>
<path style="fill:#727071; stroke:none;" d="M218 173L219 174L218 173M224 173L225 174L224 173M240 173L241 174L240 173M246 173L247 174L246 173z"/>
<path style="fill:#a2a0a1; stroke:none;" d="M360 173L360 174C361.96 174.653 362.554 175 360 175L360 176L364 173L360 173z"/>
<path style="fill:#514e4f; stroke:none;" d="M502 173L503 174L502 173z"/>
<path style="fill:#727071; stroke:none;" d="M507 173L508 174L507 173z"/>
<path style="fill:#a2a0a1; stroke:none;" d="M619 173L620 174L619 173z"/>
<path style="fill:#514e4f; stroke:none;" d="M626 173L627 174L626 173z"/>
<path style="fill:#a2a0a1; stroke:none;" d="M635 173L636 174L635 173z"/>
<path style="fill:#514e4f; stroke:none;" d="M657.333 173.667L657.667 174.333L657.333 173.667z"/>
<path style="fill:#727071; stroke:none;" d="M71 174L72 175L71 174z"/>
<path style="fill:#514e4f; stroke:none;" d="M91 174L92 175L91 174z"/>
<path style="fill:#a2a0a1; stroke:none;" d="M95 174L96 175L95 174M217 174L218 175L217 174z"/>
<path style="fill:#727071; stroke:none;" d="M241 174L242 175L241 174z"/>
<path style="fill:#a2a0a1; stroke:none;" d="M247 174L248 175L247 174M358 174L359 175L358 174z"/>
<path style="fill:#727071; stroke:none;" d="M359 174L359 175L362 175L359 174M363 174L364 175L363 174z"/>
<path style="fill:#a2a0a1; stroke:none;" d="M369 174L369 177L370 177L369 174z"/>
<path style="fill:#727071; stroke:none;" d="M469 174L470 175L469 174M475 174L476 175L475 174M501 174L502 175L501 174z"/>
<path style="fill:#514e4f; stroke:none;" d="M506 174L507 175L506 174z"/>
<path style="fill:#727071; stroke:none;" d="M609 174L610 175L609 174M618 174L619 175L618 174z"/>
<path style="fill:#514e4f; stroke:none;" d="M627 174L628 175L627 174z"/>
<path style="fill:#a2a0a1; stroke:none;" d="M655 174L656 175L655 174z"/>
<path style="fill:#727071; stroke:none;" d="M75 175L76 176L75 175z"/>
<path style="fill:#a2a0a1; stroke:none;" d="M91 175L92 176L91 175z"/>
<path style="fill:#514e4f; stroke:none;" d="M95 175L96 176L95 175z"/>
<path style="fill:#a2a0a1; stroke:none;" d="M242 175L243 176L242 175z"/>
<path style="fill:#514e4f; stroke:none;" d="M243 175L244 176L243 175z"/>
<path style="fill:#727071; stroke:none;" d="M248 175L249 176L248 175z"/>
<path style="fill:#a2a0a1; stroke:none;" d="M339 175L340 176L339 175z"/>
<path style="fill:#727071; stroke:none;" d="M340 175L341 176L340 175z"/>
<path style="fill:#a2a0a1; stroke:none;" d="M341 175L342 176L341 175M350 175L351 176L350 175z"/>
<path style="fill:#514e4f; stroke:none;" d="M356 175L357 176L356 175z"/>
<path style="fill:#a2a0a1; stroke:none;" d="M475 175L476 176L475 175z"/>
<path style="fill:#727071; stroke:none;" d="M500 175L501 176L500 175M505 175L506 176L505 175z"/>
<path style="fill:#514e4f; stroke:none;" d="M617 175L618 176L617 175z"/>
<path style="fill:#a2a0a1; stroke:none;" d="M636 175L637 176L636 175z"/>
<path style="fill:#727071; stroke:none;" d="M656 175L657 176L656 175M70 176L71 177L70 176M92 176L93 177L92 176z"/>
<path style="fill:#a2a0a1; stroke:none;" d="M216 176L217 177L216 176z"/>
<path style="fill:#514e4f; stroke:none;" d="M244 176L245 177L244 176M249 176L250 177L249 176z"/>
<path style="fill:#a2a0a1; stroke:none;" d="M338 176L338 182L339 182L338 176z"/>
<path style="fill:#514e4f; stroke:none;" d="M342 176L343 177L342 176z"/>
<path style="fill:#a2a0a1; stroke:none;" d="M343 176L344 177L343 176M348 176L349 177L348 176z"/>
<path style="fill:#727071; stroke:none;" d="M349 176L350 177L349 176M468 176L469 177L468 176z"/>
<path style="fill:#514e4f; stroke:none;" d="M474 176L475 177L474 176z"/>
<path style="fill:#727071; stroke:none;" d="M499 176L500 177L499 176z"/>
<path style="fill:#a2a0a1; stroke:none;" d="M504 176L505 177L504 176z"/>
<path style="fill:#727071; stroke:none;" d="M608 176L609 177L608 176z"/>
<path style="fill:#a2a0a1; stroke:none;" d="M617 176L618 177L617 176M628 176L629 177L628 176z"/>
<path style="fill:#727071; stroke:none;" d="M636 176L637 177L636 176z"/>
<path style="fill:#a2a0a1; stroke:none;" d="M74 177L75 178L74 177z"/>
<path style="fill:#514e4f; stroke:none;" d="M93 177L94 178L93 177M96 177L97 178L96 177M216 177L217 178L216 177z"/>
<path style="fill:#a2a0a1; stroke:none;" d="M221 177L222 178L221 177z"/>
<path style="fill:#514e4f; stroke:none;" d="M245 177L246 178L245 177M250 177L251 178L250 177z"/>
<path style="fill:#727071; stroke:none;" d="M345 177L346 178L345 177z"/>
<path style="fill:#514e4f; stroke:none;" d="M366 177L367 178L366 177z"/>
<path style="fill:#a2a0a1; stroke:none;" d="M367.667 177.333L368.333 177.667L367.667 177.333M474 177L475 178L474 177z"/>
<path style="fill:#727071; stroke:none;" d="M498 177L499 178L498 177z"/>
<path style="fill:#a2a0a1; stroke:none;" d="M503 177L504 178L503 177z"/>
<path style="fill:#727071; stroke:none;" d="M616 177L617 178L616 177z"/>
<path style="fill:#a2a0a1; stroke:none;" d="M629 177L630 178L629 177z"/>
<path style="fill:#727071; stroke:none;" d="M69 178L70 179L69 178z"/>
<path style="fill:#a2a0a1; stroke:none;" d="M93 178L94 179L93 178M97 178L98 179L97 178M215 178L216 179L215 178z"/>
<path style="fill:#727071; stroke:none;" d="M220 178L221 179L220 178z"/>
<path style="fill:#514e4f; stroke:none;" d="M246 178L247 179L246 178z"/>
<path style="fill:#727071; stroke:none;" d="M251 178L252 179L251 178z"/>
<path style="fill:#514e4f; stroke:none;" d="M361.667 178.333L362.333 178.667L361.667 178.333z"/>
<path style="fill:#a2a0a1; stroke:none;" d="M363 178L364 179L363 178M365 178L366 179L365 178M467 178L468 179L467 178z"/>
<path style="fill:#514e4f; stroke:none;" d="M473 178L474 179L473 178z"/>
<path style="fill:#a2a0a1; stroke:none;" d="M497 178L498 179L497 178M502 178L503 179L502 178M607 178L608 179L607 178z"/>
<path style="fill:#514e4f; stroke:none;" d="M615 178L616 179L615 178z"/>
<path style="fill:#727071; stroke:none;" d="M630 178L631 179L630 178M637 178L638 179L637 178z"/>
<path style="fill:#a2a0a1; stroke:none;" d="M68 179L69 180L68 179M73 179L74 180L73 179z"/>
<path style="fill:#727071; stroke:none;" d="M94 179L95 180L94 179z"/>
<path style="fill:#a2a0a1; stroke:none;" d="M214 179L215 180L214 179z"/>
<path style="fill:#514e4f; stroke:none;" d="M219 179L220 180L219 179z"/>
<path style="fill:#a2a0a1; stroke:none;" d="M246 179L247 180L246 179z"/>
<path style="fill:#514e4f; stroke:none;" d="M252 179L253 180L252 179M357 179L358 180L357 179z"/>
<path style="fill:#a2a0a1; stroke:none;" d="M358.667 179.333L359.333 179.667L358.667 179.333z"/>
<path style="fill:#514e4f; stroke:none;" d="M467 179L468 180L467 179z"/>
<path style="fill:#a2a0a1; stroke:none;" d="M473 179L474 180L473 179z"/>
<path style="fill:#727071; stroke:none;" d="M496 179L497 180L496 179z"/>
<path style="fill:#a2a0a1; stroke:none;" d="M501 179L502 180L501 179M615 179L616 180L615 179z"/>
<path style="fill:#727071; stroke:none;" d="M631 179L632 180L631 179z"/>
<path style="fill:#514e4f; stroke:none;" d="M68 180L69 181L68 180M72 180L73 181L72 180z"/>
<path style="fill:#727071; stroke:none;" d="M98 180L99 181L98 180z"/>
<path style="fill:#514e4f; stroke:none;" d="M247 180L248 181L247 180z"/>
<path style="fill:#a2a0a1; stroke:none;" d="M253.333 180.667L253.667 181.333L253.333 180.667z"/>
<path style="fill:#727071; stroke:none;" d="M355 180L356 181L355 180z"/>
<path style="fill:#a2a0a1; stroke:none;" d="M466 180L467 181L466 180z"/>
<path style="fill:#514e4f; stroke:none;" d="M495 180L496 181L495 180z"/>
<path style="fill:#a2a0a1; stroke:none;" d="M500 180L501 181L500 180M606 180L607 181L606 180z"/>
<path style="fill:#727071; stroke:none;" d="M614 180L615 181L614 180z"/>
<path style="fill:#a2a0a1; stroke:none;" d="M638 180L639 181L638 180z"/>
<path style="fill:#727071; stroke:none;" d="M67 181L68 182L67 181z"/>
<path style="fill:#a2a0a1; stroke:none;" d="M72 181L73 182L72 181z"/>
<path style="fill:#727071; stroke:none;" d="M95 181L96 182L95 181z"/>
<path style="fill:#a2a0a1; stroke:none;" d="M212 181L213 182L212 181M218 181L219 182L218 181M247 181L248 182L247 181M348 181L349 184L350 184L348 181z"/>
<path style="fill:#727071; stroke:none;" d="M349 181L350 182L349 181z"/>
<path style="fill:#514e4f; stroke:none;" d="M466 181L467 182L466 181z"/>
<path style="fill:#a2a0a1; stroke:none;" d="M472 181L473 182L472 181z"/>
<path style="fill:#514e4f; stroke:none;" d="M494 181L495 182L494 181z"/>
<path style="fill:#727071; stroke:none;" d="M499 181L500 182L499 181z"/>
<path style="fill:#514e4f; stroke:none;" d="M606 181L607 182L606 181M613 181L614 182L613 181z"/>
<path style="fill:#a2a0a1; stroke:none;" d="M632 181L633 182L632 181z"/>
<path style="fill:#514e4f; stroke:none;" d="M638 181L639 182L638 181z"/>
<path style="fill:#727071; stroke:none;" d="M66 182L67 183L66 182M71 182L72 183L71 182z"/>
<path style="fill:#514e4f; stroke:none;" d="M96 182L97 183L96 182M99 182L100 183L99 182z"/>
<path style="fill:#a2a0a1; stroke:none;" d="M211 182L212 183L211 182M217 182L218 183L217 182z"/>
<path style="fill:#514e4f; stroke:none;" d="M345 182L346 183L345 182z"/>
<path style="fill:#a2a0a1; stroke:none;" d="M346 182L347 183L346 182M465 182L466 183L465 182z"/>
<path style="fill:#514e4f; stroke:none;" d="M498 182L499 183L498 182z"/>
<path style="fill:#a2a0a1; stroke:none;" d="M605 182L606 183L605 182z"/>
<path style="fill:#514e4f; stroke:none;" d="M633 182L634 183L633 182z"/>
<path style="fill:#a2a0a1; stroke:none;" d="M639 182L640 183L639 182z"/>
<path style="fill:#514e4f; stroke:none;" d="M70 183L71 184L70 183z"/>
<path style="fill:#a2a0a1; stroke:none;" d="M96 183L97 184L96 183M100 183L101 184L100 183M208 183L209 184L208 183z"/>
<path style="fill:#514e4f; stroke:none;" d="M209.667 183.333L210.333 183.667L209.667 183.333z"/>
<path style="fill:#a2a0a1; stroke:none;" d="M216 183L217 184L216 183z"/>
<path style="fill:#514e4f; stroke:none;" d="M252.333 183.667L252.667 184.333L252.333 183.667M343 183L344 184L343 183z"/>
<path style="fill:#a2a0a1; stroke:none;" d="M344 183L345 184L344 183z"/>
<path style="fill:#727071; stroke:none;" d="M465 183L466 184L465 183M471 183L472 184L471 183z"/>
<path style="fill:#a2a0a1; stroke:none;" d="M491 183L492 184L491 183M498 183L499 184L498 183z"/>
<path style="fill:#514e4f; stroke:none;" d="M605 183L606 184L605 183z"/>
<path style="fill:#a2a0a1; stroke:none;" d="M612 183L613 184L612 183z"/>
<path style="fill:#514e4f; stroke:none;" d="M639 183L640 184L639 183z"/>
<path style="fill:#a2a0a1; stroke:none;" d="M63 184L64 185L63 184z"/>
<path style="fill:#514e4f; stroke:none;" d="M69 184L70 185L69 184M97 184L98 185L97 184M100 184L101 185L100 184z"/>
<path style="fill:#a2a0a1; stroke:none;" d="M204 184L204 185L207 185L204 184z"/>
<path style="fill:#514e4f; stroke:none;" d="M215 184L216 185L215 184z"/>
<path style="fill:#727071; stroke:none;" d="M338 184L339 185L338 184M342 184L343 185L342 184z"/>
<path style="fill:#514e4f; stroke:none;" d="M349 184L350 185L349 184z"/>
<path style="fill:#727071; stroke:none;" d="M490 184L491 185L490 184z"/>
<path style="fill:#a2a0a1; stroke:none;" d="M634 184L635 185L634 184z"/>
<path style="fill:#514e4f; stroke:none;" d="M62 185L63 186L62 185z"/>
<path style="fill:#727071; stroke:none;" d="M68 185L69 186L68 185M101 185L102 186L101 185z"/>
<path style="fill:#a2a0a1; stroke:none;" d="M201 185L202 186L201 185z"/>
<path style="fill:#514e4f; stroke:none;" d="M202.667 185.333L203.333 185.667L202.667 185.333M213 185L214 186L213 185z"/>
<path style="fill:#a2a0a1; stroke:none;" d="M214 185L215 186L214 185M247 185L248 186L247 185M252 185L252 188L253 188L252 185z"/>
<path style="fill:#727071; stroke:none;" d="M354 185L355 186L354 185z"/>
<path style="fill:#a2a0a1; stroke:none;" d="M464 185L465 186L464 185z"/>
<path style="fill:#727071; stroke:none;" d="M470 185L471 186L470 185z"/>
<path style="fill:#a2a0a1; stroke:none;" d="M488 185L489 186L488 185z"/>
<path style="fill:#514e4f; stroke:none;" d="M489 185L490 186L489 185z"/>
<path style="fill:#727071; stroke:none;" d="M496 185L497 186L496 185z"/>
<path style="fill:#a2a0a1; stroke:none;" d="M603 185L604 186L603 185z"/>
<path style="fill:#514e4f; stroke:none;" d="M604 185L605 186L604 185z"/>
<path style="fill:#a2a0a1; stroke:none;" d="M640 185L641 186L640 185M60 186L61 187L60 186z"/>
<path style="fill:#514e4f; stroke:none;" d="M61 186L62 187L61 186z"/>
<path style="fill:#a2a0a1; stroke:none;" d="M67 186L68 187L67 186M98 186L99 187L98 186M197 186L198 187L197 186z"/>
<path style="fill:#727071; stroke:none;" d="M198 186L199 187L198 186z"/>
<path style="fill:#514e4f; stroke:none;" d="M199 186L200 187L199 186M210 186L211 187L210 186z"/>
<path style="fill:#a2a0a1; stroke:none;" d="M211 186L212 187L211 186z"/>
<path style="fill:#727071; stroke:none;" d="M247 186L247 189L248 189L247 186z"/>
<path style="fill:#a2a0a1; stroke:none;" d="M337 186L338 187L337 186M341 186L342 187L341 186M354 186L354 189L355 189L354 186M470 186L471 187L470 186M486 186L487 187L486 186z"/>
<path style="fill:#514e4f; stroke:none;" d="M487 186L488 187L487 186M495 186L496 187L495 186M602 186L603 187L602 186z"/>
<path style="fill:#a2a0a1; stroke:none;" d="M610 186L611 187L610 186M635 186L636 187L635 186z"/>
<path style="fill:#727071; stroke:none;" d="M59 187L60 188L59 187z"/>
<path style="fill:#a2a0a1; stroke:none;" d="M66 187L67 188L66 187z"/>
<path style="fill:#514e4f; stroke:none;" d="M102 187L103 188L102 187z"/>
<path style="fill:#a2a0a1; stroke:none;" d="M187 187L188 188L187 187z"/>
<path style="fill:#514e4f; stroke:none;" d="M188.667 187.333L189.333 187.667L188.667 187.333z"/>
<path style="fill:#727071; stroke:none;" d="M190 187L191 188L190 187z"/>
<path style="fill:#a2a0a1; stroke:none;" d="M191 187L191 188L194 188L191 187z"/>
<path style="fill:#727071; stroke:none;" d="M194 187L195 188L194 187z"/>
<path style="fill:#514e4f; stroke:none;" d="M207 187L208 188L207 187z"/>
<path style="fill:#727071; stroke:none;" d="M208 187L209 188L208 187z"/>
<path style="fill:#514e4f; stroke:none;" d="M337 187L338 188L337 187M340 187L341 188L340 187z"/>
<path style="fill:#a2a0a1; stroke:none;" d="M463 187L464 188L463 187z"/>
<path style="fill:#727071; stroke:none;" d="M486 187L487 188L486 187z"/>
<path style="fill:#a2a0a1; stroke:none;" d="M599 187L600 188L599 187z"/>
<path style="fill:#514e4f; stroke:none;" d="M600 187L601 188L600 187z"/>
<path style="fill:#727071; stroke:none;" d="M609 187L610 188L609 187z"/>
<path style="fill:#514e4f; stroke:none;" d="M636 187L637 188L636 187z"/>
<path style="fill:#a2a0a1; stroke:none;" d="M641 187L642 188L641 187M57 188L58 189L57 188M65 188L66 189L65 188M99 188L100 189L99 188M103 188L104 189L103 188z"/>
<path style="fill:#514e4f; stroke:none;" d="M204 188L205 189L204 188z"/>
<path style="fill:#a2a0a1; stroke:none;" d="M205.667 188.333L206.333 188.667L205.667 188.333z"/>
<path style="fill:#514e4f; stroke:none;" d="M251 188L252 189L251 188z"/>
<path style="fill:#a2a0a1; stroke:none;" d="M340 188L341 189L340 188M348 188L349 189L348 188M469 188L470 189L469 188z"/>
<path style="fill:#514e4f; stroke:none;" d="M487 188L488 189L487 188z"/>
<path style="fill:#a2a0a1; stroke:none;" d="M494 188L495 189L494 188M597 188L598 189L597 188M636 188L637 189L636 188z"/>
<path style="fill:#514e4f; stroke:none;" d="M641 188L642 189L641 188z"/>
<path style="fill:#727071; stroke:none;" d="M56 189L57 190L56 189M63 189L64 190L63 189M100 189L101 190L100 189z"/>
<path style="fill:#a2a0a1; stroke:none;" d="M104 189L105 190L104 189z"/>
<path style="fill:#727071; stroke:none;" d="M201 189L202 190L201 189z"/>
<path style="fill:#a2a0a1; stroke:none;" d="M202 189L203 190L202 189z"/>
<path style="fill:#514e4f; stroke:none;" d="M247 189L248 190L247 189z"/>
<path style="fill:#727071; stroke:none;" d="M251 189L252 190L251 189M336 189L337 190L336 189M348 189L349 190L348 189z"/>
<path style="fill:#a2a0a1; stroke:none;" d="M462 189L463 190L462 189z"/>
<path style="fill:#514e4f; stroke:none;" d="M468 189L469 190L468 189M488 189L489 190L488 189z"/>
<path style="fill:#a2a0a1; stroke:none;" d="M595 189L596 190L595 189z"/>
<path style="fill:#514e4f; stroke:none;" d="M596 189L597 190L596 189z"/>
<path style="fill:#a2a0a1; stroke:none;" d="M608 189L609 190L608 189z"/>
<path style="fill:#514e4f; stroke:none;" d="M637 189L638 190L637 189z"/>
<path style="fill:#a2a0a1; stroke:none;" d="M54 190L55 191L54 190z"/>
<path style="fill:#514e4f; stroke:none;" d="M61 190L62 191L61 190z"/>
<path style="fill:#a2a0a1; stroke:none;" d="M62 190L63 191L62 190z"/>
<path style="fill:#514e4f; stroke:none;" d="M104 190L105 191L104 190M198 190L199 191L198 190z"/>
<path style="fill:#a2a0a1; stroke:none;" d="M199 190L200 191L199 190M246 190L247 191L246 190M251 190L252 191L251 190z"/>
<path style="fill:#514e4f; stroke:none;" d="M336 190L337 191L336 190z"/>
<path style="fill:#a2a0a1; stroke:none;" d="M339 190L340 191L339 190z"/>
<path style="fill:#514e4f; stroke:none;" d="M348 190L348 194L349 194L348 190M353 190L353 193L354 193L353 190z"/>
<path style="fill:#727071; stroke:none;" d="M462 190L463 191L462 190z"/>
<path style="fill:#a2a0a1; stroke:none;" d="M468 190L469 191L468 190M488 190L489 191L488 190M593 190L594 191L593 190z"/>
<path style="fill:#514e4f; stroke:none;" d="M606 190L607 191L606 190z"/>
<path style="fill:#a2a0a1; stroke:none;" d="M607 190L608 191L607 190z"/>
<path style="fill:#727071; stroke:none;" d="M642 190L643 191L642 190z"/>
<path style="fill:#514e4f; stroke:none;" d="M53 191L54 192L53 191z"/>
<path style="fill:#727071; stroke:none;" d="M60 191L61 192L60 191M101 191L102 192L101 191M105 191L106 192L105 191z"/>
<path style="fill:#a2a0a1; stroke:none;" d="M186 191L187 192L186 191z"/>
<path style="fill:#727071; stroke:none;" d="M196 191L197 192L196 191z"/>
<path style="fill:#a2a0a1; stroke:none;" d="M197 191L198 192L197 191M335 191L336 192L335 191z"/>
<path style="fill:#514e4f; stroke:none;" d="M338 191L339 192L338 191z"/>
<path style="fill:#727071; stroke:none;" d="M467 191L468 192L467 191M489 191L490 192L489 191z"/>
<path style="fill:#a2a0a1; stroke:none;" d="M494 191L494 194L495 194L494 191M590 191L591 192L590 191z"/>
<path style="fill:#514e4f; stroke:none;" d="M591 191L592 192L591 191z"/>
<path style="fill:#727071; stroke:none;" d="M604 191L605 192L604 191z"/>
<path style="fill:#a2a0a1; stroke:none;" d="M605 191L606 192L605 191z"/>
<path style="fill:#727071; stroke:none;" d="M638 191L639 192L638 191z"/>
<path style="fill:#a2a0a1; stroke:none;" d="M51 192L52 193L51 192z"/>
<path style="fill:#514e4f; stroke:none;" d="M58 192L59 193L58 192z"/>
<path style="fill:#a2a0a1; stroke:none;" d="M59 192L60 193L59 192z"/>
<path style="fill:#727071; stroke:none;" d="M186 192L187 193L186 192z"/>
<path style="fill:#a2a0a1; stroke:none;" d="M195 192L196 193L195 192M246 192L247 193L246 192z"/>
<path style="fill:#727071; stroke:none;" d="M335 192L336 193L335 192z"/>
<path style="fill:#a2a0a1; stroke:none;" d="M338 192L339 193L338 192z"/>
<path style="fill:#514e4f; stroke:none;" d="M461 192L462 193L461 192z"/>
<path style="fill:#a2a0a1; stroke:none;" d="M588 192L589 193L588 192z"/>
<path style="fill:#727071; stroke:none;" d="M589 192L590 193L589 192z"/>
<path style="fill:#a2a0a1; stroke:none;" d="M602 192L603 193L602 192z"/>
<path style="fill:#727071; stroke:none;" d="M643 192L644 193L643 192z"/>
<path style="fill:#a2a0a1; stroke:none;" d="M49 193L50 194L49 193z"/>
<path style="fill:#514e4f; stroke:none;" d="M50 193L51 194L50 193z"/>
<path style="fill:#a2a0a1; stroke:none;" d="M57 193L58 194L57 193M102 193L103 194L102 193z"/>
<path style="fill:#514e4f; stroke:none;" d="M186 193L186 196L187 196L186 193z"/>
<path style="fill:#a2a0a1; stroke:none;" d="M194 193L195 194L194 193z"/>
<path style="fill:#514e4f; stroke:none;" d="M246 193L247 194L246 193M337 193L338 194L337 193z"/>
<path style="fill:#727071; stroke:none;" d="M353 193L354 194L353 193z"/>
<path style="fill:#a2a0a1; stroke:none;" d="M466 193L467 194L466 193z"/>
<path style="fill:#727071; stroke:none;" d="M490 193L491 194L490 193z"/>
<path style="fill:#a2a0a1; stroke:none;" d="M586 193L587 194L586 193z"/>
<path style="fill:#514e4f; stroke:none;" d="M587 193L588 194L587 193M599 193L600 194L599 193z"/>
<path style="fill:#a2a0a1; stroke:none;" d="M600 193L601 194L600 193z"/>
<path style="fill:#727071; stroke:none;" d="M639 193L640 194L639 193z"/>
<path style="fill:#a2a0a1; stroke:none;" d="M48 194L49 195L48 194z"/>
<path style="fill:#727071; stroke:none;" d="M55 194L56 195L55 194z"/>
<path style="fill:#514e4f; stroke:none;" d="M103 194L104 195L103 194M107 194L108 195L107 194M192 194L193 195L192 194z"/>
<path style="fill:#727071; stroke:none;" d="M250 194L251 195L250 194z"/>
<path style="fill:#a2a0a1; stroke:none;" d="M334 194L335 195L334 194M347 194L347 199L348 199L347 194M353 194L354 195L353 194z"/>
<path style="fill:#727071; stroke:none;" d="M460 194L461 195L460 194M494 194L495 195L494 194z"/>
<path style="fill:#a2a0a1; stroke:none;" d="M584 194L585 195L584 194z"/>
<path style="fill:#514e4f; stroke:none;" d="M585 194L586 195L585 194M597 194L598 195L597 194z"/>
<path style="fill:#a2a0a1; stroke:none;" d="M598 194L599 195L598 194M644 194L645 195L644 194M46 195L47 196L46 195z"/>
<path style="fill:#727071; stroke:none;" d="M47 195L48 196L47 195M54 195L55 196L54 195z"/>
<path style="fill:#a2a0a1; stroke:none;" d="M103 195L104 196L103 195M108 195L109 196L108 195M250 195L250 198L251 198L250 195z"/>
<path style="fill:#727071; stroke:none;" d="M334 195L335 196L334 195z"/>
<path style="fill:#a2a0a1; stroke:none;" d="M336 195L337 196L336 195z"/>
<path style="fill:#514e4f; stroke:none;" d="M459 195L460 196L459 195z"/>
<path style="fill:#727071; stroke:none;" d="M465 195L466 196L465 195M491 195L492 196L491 195z"/>
<path style="fill:#514e4f; stroke:none;" d="M494 195L495 196L494 195z"/>
<path style="fill:#727071; stroke:none;" d="M582 195L583 196L582 195M595 195L596 196L595 195M640 195L641 196L640 195z"/>
<path style="fill:#514e4f; stroke:none;" d="M644 195L645 196L644 195z"/>
<path style="fill:#a2a0a1; stroke:none;" d="M42.6667 196.333L43.3333 196.667L42.6667 196.333z"/>
<path style="fill:#727071; stroke:none;" d="M44 196L45 197L44 196z"/>
<path style="fill:#514e4f; stroke:none;" d="M45 196L46 197L45 196z"/>
<path style="fill:#a2a0a1; stroke:none;" d="M53 196L54 197L53 196z"/>
<path style="fill:#514e4f; stroke:none;" d="M104 196L105 197L104 196M108 196L109 197L108 196z"/>
<path style="fill:#a2a0a1; stroke:none;" d="M185 196L185 199L186 199L185 196M191 196L192 197L191 196M245 196L246 197L245 196M334.667 196.333L335.333 196.667L334.667 196.333M457 196L458 197L457 196z"/>
<path style="fill:#727071; stroke:none;" d="M580 196L581 197L580 196z"/>
<path style="fill:#514e4f; stroke:none;" d="M593 196L594 197L593 196z"/>
<path style="fill:#a2a0a1; stroke:none;" d="M594 196L595 197L594 196M645 196L646 197L645 196z"/>
<path style="fill:#727071; stroke:none;" d="M41 197L42 198L41 197z"/>
<path style="fill:#a2a0a1; stroke:none;" d="M52 197L53 198L52 197z"/>
<path style="fill:#727071; stroke:none;" d="M245.333 197.667L245.667 198.333L245.333 197.667z"/>
<path style="fill:#a2a0a1; stroke:none;" d="M456 197L457 198L456 197z"/>
<path style="fill:#727071; stroke:none;" d="M492 197L493 198L492 197z"/>
<path style="fill:#a2a0a1; stroke:none;" d="M577 197L578 198L577 197z"/>
<path style="fill:#727071; stroke:none;" d="M578 197L579 198L578 197z"/>
<path style="fill:#a2a0a1; stroke:none;" d="M591 197L592 198L591 197z"/>
<path style="fill:#727071; stroke:none;" d="M641 197L642 198L641 197z"/>
<path style="fill:#a2a0a1; stroke:none;" d="M41 198L42 199L41 198z"/>
<path style="fill:#727071; stroke:none;" d="M105 198L106 199L105 198z"/>
<path style="fill:#a2a0a1; stroke:none;" d="M110 198L111 199L110 198z"/>
<path style="fill:#514e4f; stroke:none;" d="M189 198L190 199L189 198M249.333 198.667L249.667 199.333L249.333 198.667M352 198L353 199L352 198M456 198L457 199L456 198z"/>
<path style="fill:#a2a0a1; stroke:none;" d="M495 198L496 199L495 198z"/>
<path style="fill:#727071; stroke:none;" d="M577 198L578 199L577 198z"/>
<path style="fill:#514e4f; stroke:none;" d="M588 198L589 199L588 198z"/>
<path style="fill:#a2a0a1; stroke:none;" d="M589 198L590 199L589 198M646 198L647 199L646 198z"/>
<path style="fill:#514e4f; stroke:none;" d="M42 199L43 200L42 199M106 199L107 200L106 199z"/>
<path style="fill:#a2a0a1; stroke:none;" d="M111 199L112 200L111 199z"/>
<path style="fill:#727071; stroke:none;" d="M185 199L186 200L185 199z"/>
<path style="fill:#a2a0a1; stroke:none;" d="M188 199L189 200L188 199z"/>
<path style="fill:#514e4f; stroke:none;" d="M245 199L246 200L245 199M347 199L348 200L347 199z"/>
<path style="fill:#a2a0a1; stroke:none;" d="M352 199L353 200L352 199z"/>
<path style="fill:#727071; stroke:none;" d="M457 199L458 200L457 199M465 199L466 200L465 199M493 199L494 200L493 199z"/>
<path style="fill:#514e4f; stroke:none;" d="M495.333 199.667L495.667 200.333L495.333 199.667z"/>
<path style="fill:#727071; stroke:none;" d="M586 199L587 200L586 199z"/>
<path style="fill:#a2a0a1; stroke:none;" d="M587 199L588 200L587 199z"/>
<path style="fill:#727071; stroke:none;" d="M642 199L643 200L642 199z"/>
<path style="fill:#514e4f; stroke:none;" d="M646 199L647 200L646 199z"/>
<path style="fill:#727071; stroke:none;" d="M42 200L43 201L42 200z"/>
<path style="fill:#514e4f; stroke:none;" d="M49 200L49 211L50 211L49 200z"/>
<path style="fill:#a2a0a1; stroke:none;" d="M106 200L107 201L106 200z"/>
<path style="fill:#514e4f; stroke:none;" d="M111 200L112 201L111 200z"/>
<path style="fill:#a2a0a1; stroke:none;" d="M127 200L127 201L130 202L127 200z"/>
<path style="fill:#514e4f; stroke:none;" d="M185.667 200.333L186.333 200.667L185.667 200.333z"/>
<path style="fill:#a2a0a1; stroke:none;" d="M187 200L188 201L187 200M249 200L250 201L249 200z"/>
<path style="fill:#727071; stroke:none;" d="M352.333 200.667L352.667 201.333L352.333 200.667M458 200L459 201L458 200z"/>
<path style="fill:#a2a0a1; stroke:none;" d="M466 200L467 201L466 200M578 200L579 201L578 200M585 200L586 201L585 200M642 200L643 201L642 200M647 200L648 201L647 200M42 201L43 202L42 201z"/>
<path style="fill:#727071; stroke:none;" d="M107 201L108 202L107 201M112 201L113 202L112 201M126 201L127 202L126 201z"/>
<path style="fill:#514e4f; stroke:none;" d="M459 201L460 202L459 201M466 201L467 202L466 201z"/>
<path style="fill:#a2a0a1; stroke:none;" d="M494.667 201.333L495.333 201.667L494.667 201.333z"/>
<path style="fill:#727071; stroke:none;" d="M643 201L644 202L643 201z"/>
<path style="fill:#a2a0a1; stroke:none;" d="M113 202L114 203L113 202z"/>
<path style="fill:#727071; stroke:none;" d="M128 202L129 203L128 202z"/>
<path style="fill:#a2a0a1; stroke:none;" d="M244.333 202.667L244.667 203.333L244.333 202.667M352 202L353 203L352 202z"/>
<path style="fill:#727071; stroke:none;" d="M467 202L468 203L467 202M579 202L580 203L579 202z"/>
<path style="fill:#a2a0a1; stroke:none;" d="M643 202L644 203L643 202M648 202L649 203L648 202M665 202L666 203L665 202z"/>
<path style="fill:#514e4f; stroke:none;" d="M666 202L668 204L666 202z"/>
<path style="fill:#a2a0a1; stroke:none;" d="M667 202L668 203L667 202M43 203L44 204L43 203z"/>
<path style="fill:#727071; stroke:none;" d="M108 203L109 204L108 203M123 203L124 204L123 203z"/>
<path style="fill:#a2a0a1; stroke:none;" d="M346 203L347 204L346 203M460 203L461 204L460 203M585 203L585 206L586 206L585 203z"/>
<path style="fill:#514e4f; stroke:none;" d="M644 203L645 204L644 203M648 203L649 204L648 203z"/>
<path style="fill:#a2a0a1; stroke:none;" d="M664 203L665 204L664 203z"/>
<path style="fill:#514e4f; stroke:none;" d="M114 204L115 205L114 204z"/>
<path style="fill:#a2a0a1; stroke:none;" d="M122 204L123 205L122 204M127 204L128 205L127 204z"/>
<path style="fill:#514e4f; stroke:none;" d="M244 204L245 205L244 204M249 204L250 205L249 204z"/>
<path style="fill:#727071; stroke:none;" d="M346 204L347 205L346 204z"/>
<path style="fill:#514e4f; stroke:none;" d="M351.333 204.667L351.667 205.333L351.333 204.667z"/>
<path style="fill:#a2a0a1; stroke:none;" d="M461 204L462 205L461 204z"/>
<path style="fill:#727071; stroke:none;" d="M580 204L581 205L580 204z"/>
<path style="fill:#a2a0a1; stroke:none;" d="M644 204L645 205L644 204z"/>
<path style="fill:#514e4f; stroke:none;" d="M649 204L650 205L649 204z"/>
<path style="fill:#a2a0a1; stroke:none;" d="M661.667 204.333L662.333 204.667L661.667 204.333z"/>
<path style="fill:#514e4f; stroke:none;" d="M663 204L664 205L663 204M44 205L45 206L44 205z"/>
<path style="fill:#a2a0a1; stroke:none;" d="M109 205L110 206L109 205z"/>
<path style="fill:#514e4f; stroke:none;" d="M115 205L116 206L115 205z"/>
<path style="fill:#727071; stroke:none;" d="M126 205L127 206L126 205z"/>
<path style="fill:#a2a0a1; stroke:none;" d="M243 205L244 206L243 205z"/>
<path style="fill:#514e4f; stroke:none;" d="M250 205L251 206L250 205M346 205L347 206L346 205z"/>
<path style="fill:#a2a0a1; stroke:none;" d="M462 205L463 206L462 205M469 205L470 206L469 205M580 205L581 206L580 205z"/>
<path style="fill:#514e4f; stroke:none;" d="M645 205L646 206L645 205z"/>
<path style="fill:#727071; stroke:none;" d="M650 205L651 206L650 205z"/>
<path style="fill:#a2a0a1; stroke:none;" d="M659 205L660 206L659 205z"/>
<path style="fill:#514e4f; stroke:none;" d="M660 205L661 206L660 205z"/>
<path style="fill:#a2a0a1; stroke:none;" d="M666 205L667 206L666 205M44 206L45 207L44 206z"/>
<path style="fill:#514e4f; stroke:none;" d="M110 206L111 207L110 206z"/>
<path style="fill:#a2a0a1; stroke:none;" d="M116 206L117 207L116 206M119 206L120 207L119 206M242 206L243 207L242 206z"/>
<path style="fill:#514e4f; stroke:none;" d="M252 206L253 207L252 206z"/>
<path style="fill:#a2a0a1; stroke:none;" d="M253 206L254 207L253 206M345 206L346 207L345 206z"/>
<path style="fill:#514e4f; stroke:none;" d="M353 206L354 207L353 206z"/>
<path style="fill:#a2a0a1; stroke:none;" d="M354 206L354 207L358 207L354 206M463 206L464 207L463 206M470 206L471 207L470 206z"/>
<path style="fill:#727071; stroke:none;" d="M581 206L582 207L581 206z"/>
<path style="fill:#514e4f; stroke:none;" d="M585 206L586 207L585 206z"/>
<path style="fill:#a2a0a1; stroke:none;" d="M645 206L646 207L645 206M651 206L652 207L651 206M657 206L658 207L657 206z"/>
<path style="fill:#514e4f; stroke:none;" d="M664 206L665 207L664 206z"/>
<path style="fill:#a2a0a1; stroke:none;" d="M110 207L111 208L110 207z"/>
<path style="fill:#514e4f; stroke:none;" d="M242 207L243 208L242 207M255 207L256 208L255 207z"/>
<path style="fill:#727071; stroke:none;" d="M256 207L257 208L256 207z"/>
<path style="fill:#514e4f; stroke:none;" d="M359 207L360 208L359 207z"/>
<path style="fill:#727071; stroke:none;" d="M360 207L361 208L360 207z"/>
<path style="fill:#a2a0a1; stroke:none;" d="M361 207L362 208L361 207M464 207L465 208L464 207z"/>
<path style="fill:#514e4f; stroke:none;" d="M470 207L471 208L470 207z"/>
<path style="fill:#a2a0a1; stroke:none;" d="M652 207L652 208L655 208L652 207z"/>
<path style="fill:#727071; stroke:none;" d="M655 207L656 208L655 207z"/>
<path style="fill:#514e4f; stroke:none;" d="M656 207L657 208L656 207z"/>
<path style="fill:#a2a0a1; stroke:none;" d="M664 207L665 208L664 207z"/>
<path style="fill:#727071; stroke:none;" d="M45 208L46 209L45 208z"/>
<path style="fill:#514e4f; stroke:none;" d="M111 208L112 209L111 208z"/>
<path style="fill:#a2a0a1; stroke:none;" d="M124 208L125 209L124 208z"/>
<path style="fill:#514e4f; stroke:none;" d="M241 208L244 210L244 209L241 208z"/>
<path style="fill:#727071; stroke:none;" d="M259.667 208.333L260.333 208.667L259.667 208.333M344 208L345 209L344 208z"/>
<path style="fill:#514e4f; stroke:none;" d="M362 208L363 209L362 208z"/>
<path style="fill:#a2a0a1; stroke:none;" d="M363 208L364 209L363 208M465 208L466 209L465 208z"/>
<path style="fill:#514e4f; stroke:none;" d="M471 208L472 209L471 208M582 208L583 209L582 208z"/>
<path style="fill:#a2a0a1; stroke:none;" d="M646 208L647 209L646 208M45 209L46 210L45 209z"/>
<path style="fill:#727071; stroke:none;" d="M123 209L124 210L123 209M241 209L242 210L241 209z"/>
<path style="fill:#514e4f; stroke:none;" d="M256 209L256 210L259 210L256 209M260 209L261 210L260 209z"/>
<path style="fill:#a2a0a1; stroke:none;" d="M261 209L262 210L261 209z"/>
<path style="fill:#727071; stroke:none;" d="M364 209L365 210L364 209z"/>
<path style="fill:#a2a0a1; stroke:none;" d="M466 209L467 210L466 209M473 209L474 210L473 209M582 209L583 210L582 209M586 209L587 210L586 209z"/>
<path style="fill:#514e4f; stroke:none;" d="M661 209L662 210L661 209z"/>
<path style="fill:#a2a0a1; stroke:none;" d="M112 210L113 211L112 210z"/>
<path style="fill:#514e4f; stroke:none;" d="M122 210L123 211L122 210z"/>
<path style="fill:#a2a0a1; stroke:none;" d="M344 210L344 211L365 211L344 210M467 210L468 211L467 210z"/>
<path style="fill:#514e4f; stroke:none;" d="M472 210L473 211L472 210z"/>
<path style="fill:#727071; stroke:none;" d="M473 210L474 211L473 210M583 210L584 211L583 210z"/>
<path style="fill:#514e4f; stroke:none;" d="M586 210L586 213L587 213L586 210z"/>
<path style="fill:#a2a0a1; stroke:none;" d="M647 210L648 211L647 210z"/>
<path style="fill:#727071; stroke:none;" d="M660 210L661 211L660 210M46 211L47 212L46 211z"/>
<path style="fill:#514e4f; stroke:none;" d="M50 211L51 212L50 211z"/>
<path style="fill:#a2a0a1; stroke:none;" d="M51 211L52 212L51 211z"/>
<path style="fill:#727071; stroke:none;" d="M121 211L122 212L121 211z"/>
<path style="fill:#a2a0a1; stroke:none;" d="M468 211L468 212L472 212L468 211M583 211L584 212L583 211M659 211L660 212L659 211M46 212L47 213L46 212z"/>
<path style="fill:#727071; stroke:none;" d="M52 212L53 213L52 212M120 212L121 213L120 212z"/>
<path style="fill:#514e4f; stroke:none;" d="M584 212L585 213L584 212z"/>
<path style="fill:#727071; stroke:none;" d="M648 212L649 213L648 212z"/>
<path style="fill:#a2a0a1; stroke:none;" d="M658 212L659 213L658 212z"/>
<path style="fill:#727071; stroke:none;" d="M47 213L48 214L47 213z"/>
<path style="fill:#514e4f; stroke:none;" d="M53 213L54 214L53 213z"/>
<path style="fill:#a2a0a1; stroke:none;" d="M54 213L55 214L54 213z"/>
<path style="fill:#514e4f; stroke:none;" d="M113 213L114 214L113 213M118 213L119 214L118 213z"/>
<path style="fill:#a2a0a1; stroke:none;" d="M119 213L120 214L119 213M584 213L585 214L584 213M587 213L587 216L588 216L587 213z"/>
<path style="fill:#514e4f; stroke:none;" d="M656 213L657 214L656 213z"/>
<path style="fill:#a2a0a1; stroke:none;" d="M657 213L658 214L657 213z"/>
<path style="fill:#727071; stroke:none;" d="M48 214L49 215L48 214z"/>
<path style="fill:#a2a0a1; stroke:none;" d="M55 214L56 215L55 214z"/>
<path style="fill:#727071; stroke:none;" d="M113 214L114 215L113 214M116 214L117 215L116 214z"/>
<path style="fill:#a2a0a1; stroke:none;" d="M117 214L118 215L117 214z"/>
<path style="fill:#727071; stroke:none;" d="M585 214L586 215L585 214M649 214L650 215L649 214M655 214L656 215L655 214z"/>
<path style="fill:#a2a0a1; stroke:none;" d="M49.6667 215.333L50.3333 215.667L49.6667 215.333z"/>
<path style="fill:#727071; stroke:none;" d="M51 215L51 216L54 216L51 215z"/>
<path style="fill:#a2a0a1; stroke:none;" d="M54 215L55 216L54 215M585 215L586 216L585 215M649 215L650 216L649 215z"/>
<path style="fill:#514e4f; stroke:none;" d="M653 215L654 216L653 215z"/>
<path style="fill:#a2a0a1; stroke:none;" d="M654 215L655 216L654 215M650 216L650 217L653 217L650 216z"/>
</svg>
