<?xml version="1.0" standalone="no"?>
<!DOCTYPE svg PUBLIC "-//W3C//DTD SVG 20010904//EN"
 "http://www.w3.org/TR/2001/REC-SVG-20010904/DTD/svg10.dtd">
<svg version="1.0" xmlns="http://www.w3.org/2000/svg"
 width="1000.000000pt" height="301.000000pt" viewBox="0 0 1000.000000 301.000000"
 preserveAspectRatio="xMidYMid meet">

<g transform="translate(0.000000,301.000000) scale(0.100000,-0.100000)"
fill="#000000" stroke="none">
<path d="M6941 2898 c-18 -5 -57 -33 -86 -61 -60 -61 -91 -135 -81 -197 3 -22
0 -58 -9 -89 l-16 -51 -46 0 c-39 0 -50 -5 -84 -38 -21 -22 -40 -35 -42 -29
-1 5 -10 3 -18 -5 -8 -8 -24 -20 -37 -27 -25 -13 -30 -51 -7 -51 8 0 15 -2 15
-5 0 -3 -24 -54 -54 -113 -29 -59 -79 -171 -111 -249 l-57 -143 66 -204 66
-205 -84 -188 c-363 -813 -322 -729 -383 -781 l-47 -41 59 -63 c33 -35 93 -98
133 -141 l73 -78 69 7 c39 4 70 11 70 16 0 5 -15 18 -34 29 -37 22 -166 208
-166 239 0 24 25 81 60 138 16 26 90 184 164 352 75 167 140 308 144 312 5 5
19 -26 31 -68 15 -51 26 -73 32 -67 18 18 21 116 7 185 -14 66 -14 68 11 108
14 22 28 40 31 40 14 0 170 -133 219 -186 30 -33 78 -85 108 -116 29 -31 53
-61 53 -66 0 -58 -350 -392 -411 -392 -27 0 -24 -14 17 -67 20 -26 64 -105 98
-175 56 -116 86 -156 86 -110 0 9 -11 75 -25 146 -18 98 -21 134 -13 150 27
53 91 131 199 241 73 75 124 137 136 165 11 25 35 106 54 182 l33 136 -116
239 -116 238 -12 140 c-8 104 -9 158 0 210 26 165 26 164 -14 236 -41 74 -48
120 -17 112 10 -3 31 3 45 12 18 12 36 15 59 11 38 -7 52 1 36 21 -9 10 -5 13
18 13 51 0 98 75 108 169 5 48 2 62 -17 91 -26 39 -98 80 -138 79 -14 0 -40
-5 -59 -11z m-435 -989 c-7 -30 -19 -97 -26 -149 -7 -52 -16 -98 -19 -103 -11
-11 -44 179 -34 195 19 31 87 117 90 114 2 -2 -3 -27 -11 -57z m458 -330 l118
-220 -12 -79 c-7 -44 -9 -96 -6 -117 l6 -38 -32 36 c-61 68 -268 356 -268 373
0 27 62 266 69 266 3 0 59 -99 125 -221z"/>
<path d="M5135 2811 c-48 -22 -101 -79 -128 -139 -15 -35 -18 -59 -14 -106 3
-34 0 -79 -5 -102 -8 -34 -16 -43 -51 -60 -22 -10 -49 -30 -59 -44 -42 -60
-72 -272 -89 -638 l-11 -248 30 -59 30 -60 -17 -243 c-13 -179 -21 -246 -31
-252 -34 -21 -99 -21 -139 -1 -22 12 -52 21 -66 21 -25 0 -25 -1 -25 -82 0
-76 -4 -94 -50 -211 -65 -168 -67 -217 -4 -144 16 19 54 81 84 140 l55 106 65
30 c36 16 66 28 68 26 1 -1 -12 -112 -29 -245 -28 -220 -34 -248 -59 -289 -16
-25 -30 -52 -32 -58 -2 -10 57 -13 259 -15 144 -2 259 0 255 4 -20 20 -168 71
-241 84 -46 7 -86 16 -89 18 -3 3 12 117 32 253 20 137 36 253 36 260 0 6 30
18 68 26 37 8 102 23 146 32 l79 17 -6 66 c-4 37 -22 132 -41 212 -51 218 -51
212 -17 150 34 -65 119 -152 106 -110 -5 14 -29 95 -55 181 l-47 156 18 224
c34 415 35 427 10 509 -12 40 -32 95 -45 124 -31 72 -26 86 34 86 93 0 189 92
212 203 12 55 11 61 -12 105 -43 82 -139 113 -225 73z m-110 -1717 c17 -79 35
-138 42 -141 18 -7 16 -58 -3 -77 -20 -20 -54 -21 -54 -1 0 8 9 15 20 15 11 0
20 5 20 10 0 13 -4 13 -66 -7 -30 -9 -57 -14 -60 -10 -9 8 56 347 65 347 4 0
20 -61 36 -136z"/>
<path d="M8833 2745 c-84 -36 -153 -154 -153 -262 0 -48 -5 -62 -32 -99 -19
-25 -41 -44 -53 -44 -38 0 -118 -144 -264 -473 -157 -353 -242 -515 -309 -586
-19 -20 -38 -44 -44 -54 -10 -19 -2 -97 10 -97 16 0 72 41 85 62 8 13 65 120
127 238 128 247 232 430 243 430 4 0 5 -10 3 -22 -3 -13 -10 -108 -16 -213
-17 -300 -35 -380 -132 -592 -45 -98 -85 -183 -90 -189 -4 -6 -129 -67 -276
-134 -147 -68 -273 -128 -279 -134 -10 -9 9 -55 82 -204 52 -105 98 -192 102
-192 30 1 30 19 1 173 -17 87 -28 160 -26 162 2 2 110 51 239 108 l234 104 60
85 c33 47 102 147 153 222 l93 137 42 -54 c23 -29 65 -79 92 -110 28 -32 74
-96 103 -145 53 -88 225 -432 298 -595 l39 -88 33 5 c49 7 187 104 274 193 72
73 76 79 62 98 -13 17 -17 18 -37 5 -46 -29 -199 -93 -248 -104 -68 -15 -141
122 -404 757 l-106 257 26 179 c14 98 25 184 25 192 0 29 19 -9 40 -83 22 -76
25 -80 124 -176 56 -54 127 -123 159 -153 50 -47 63 -67 101 -160 49 -122 79
-169 107 -169 24 0 24 -3 -5 106 -24 86 -31 100 -156 273 -258 359 -322 496
-345 736 -8 94 -21 129 -50 145 -27 14 -31 30 -15 46 7 7 26 7 58 1 101 -21
184 24 239 132 42 81 46 168 10 222 -44 67 -149 97 -224 64z"/>
<path d="M1165 2700 c-101 -23 -195 -134 -195 -229 0 -22 -11 -65 -24 -95 -21
-47 -32 -59 -77 -82 -92 -46 -280 -256 -344 -384 -39 -78 -57 -138 -86 -290
-27 -144 -32 -158 -65 -170 -15 -6 -24 -13 -20 -17 9 -9 -14 -33 -33 -33 -17
-1 -110 -119 -118 -151 -9 -32 17 -22 129 52 l108 72 29 96 c16 53 48 159 71
236 53 181 87 233 229 349 71 58 87 67 77 41 -3 -8 -10 -55 -16 -103 -6 -48
-36 -179 -67 -292 -56 -200 -57 -208 -58 -340 -1 -129 -3 -139 -39 -240 -21
-58 -54 -136 -73 -173 -42 -80 -70 -103 -319 -266 -135 -88 -180 -112 -218
-117 -25 -4 -49 -10 -51 -15 -5 -8 87 -273 112 -324 31 -60 40 -65 125 -65 99
0 102 14 13 66 l-65 38 0 114 0 113 48 44 c26 24 71 59 101 77 263 162 288
190 446 491 37 70 71 127 75 125 13 -5 131 -142 175 -203 23 -33 85 -132 137
-220 263 -446 319 -546 330 -595 11 -48 13 -51 37 -45 70 16 137 61 194 130
61 73 148 197 142 203 -9 9 -100 -41 -166 -91 -41 -31 -85 -58 -99 -61 -28 -6
-32 -1 -217 261 -228 323 -393 654 -393 787 0 75 67 422 90 465 4 8 15 -25 25
-79 21 -107 55 -166 168 -287 l70 -76 -7 -58 c-7 -74 20 -168 65 -222 41 -49
49 -38 49 69 0 80 -1 83 -65 210 -36 71 -88 167 -115 214 -69 117 -107 221
-140 381 -26 125 -50 198 -81 240 -7 9 -9 27 -5 43 6 25 8 26 60 20 68 -8 126
17 185 81 46 50 77 137 66 185 -18 80 -116 140 -200 120z"/>
<path d="M3270 2525 c-25 -8 -64 -30 -87 -50 -46 -39 -93 -124 -93 -167 0 -15
-10 -48 -22 -74 -19 -38 -53 -69 -213 -193 -104 -81 -213 -164 -242 -185 -71
-51 -84 -68 -223 -291 -113 -180 -125 -195 -151 -195 -40 0 -243 -110 -229
-124 9 -9 234 24 267 39 23 10 80 78 202 240 163 217 174 229 279 311 61 46
113 84 117 84 17 0 37 -80 36 -150 -1 -85 -9 -117 -81 -320 -45 -127 -51 -152
-47 -203 3 -32 12 -69 21 -82 15 -23 13 -28 -41 -132 -110 -209 -140 -257
-175 -286 -53 -42 -344 -119 -450 -118 -42 1 -79 -3 -82 -8 -4 -6 -46 -267
-46 -288 0 0 10 1 23 4 29 7 129 82 123 92 -5 7 45 59 87 91 10 7 105 43 210
80 l192 66 131 162 c72 88 142 176 156 193 l25 33 152 -109 c235 -168 229
-152 175 -458 -38 -217 -40 -222 -77 -269 -21 -27 -35 -53 -32 -58 4 -6 100
-10 243 -10 274 0 284 6 90 60 -76 22 -125 41 -138 55 l-20 21 49 245 49 244
-169 170 c-93 94 -169 178 -169 188 0 9 11 50 24 90 51 157 104 486 91 571 -6
39 -5 40 10 21 9 -11 47 -79 85 -150 l69 -130 143 -108 c181 -136 205 -158
227 -211 14 -31 31 -50 62 -68 24 -14 57 -41 73 -59 16 -18 31 -28 33 -23 2 6
-15 48 -38 95 -23 46 -45 94 -50 106 -4 12 -65 67 -136 124 -213 170 -254 209
-309 294 -64 99 -234 443 -227 461 3 9 22 11 72 7 56 -5 73 -2 106 15 76 40
126 99 145 170 32 124 -89 227 -220 187z"/>
<path d="M2465 1240 c-3 -5 -2 -10 4 -10 5 0 13 5 16 10 3 6 2 10 -4 10 -5 0
-13 -4 -16 -10z"/>
<path d="M2758 494 c-37 -19 -36 -25 2 -11 17 6 30 15 30 19 0 10 0 10 -32 -8z"/>
<path d="M6455 290 c-3 -5 -1 -10 4 -10 6 0 11 5 11 10 0 6 -2 10 -4 10 -3 0
-8 -4 -11 -10z"/>
</g>
</svg>
